<?xml version="1.0" encoding="utf-8"?>
<!-- Generator: Adobe Illustrator 19.0.0, SVG Export Plug-In . SVG Version: 6.00 Build 0)  -->
<svg version="1.1" xmlns="http://www.w3.org/2000/svg" xmlns:xlink="http://www.w3.org/1999/xlink" x="0px" y="0px"
	 viewBox="0 0 1588.5 1198.8" style="enable-background:new 0 0 1588.5 1198.8;" xml:space="preserve">
<style type="text/css">
	.st0{fill:#010101;}
	.st1{fill:none;}
</style>
<g id="XMLID_10_" transform="translate(0.000000,1280.000000) scale(0.100000,-0.100000)">
	<path id="XMLID_40_" class="st0" d="M2616,12794.5c-194.9-22.2-390.8-88.7-528.4-180.1c-16.6-10.2-30.5-15.7-30.5-10.2
		c0,11.1,97,101.6,146.9,136.7c20.3,14.8,37.9,29.6,37.9,34.2c0,12-122.9,6.5-184.8-8.3c-70.2-15.7-143.2-54.5-245.7-128.4
		c-67.4-49-150.6-97-167.2-97c-3.7,0,22.2,30.5,58.2,67.4c98.8,101.6,97.9,99.8,33.3,85c-165.4-38.8-284.5-111.8-328.9-200.5
		c-24.9-49-35.1-132.1-12-96.1c56.4,87.8,127.5,181.1,139.5,181.1c7.4,0-13.9-77.6-33.3-113.6c-10.2-21.2-39.7-71.1-64.7-110.9
		l-46.2-71.1l-26.8,41.6c-24,37.9-49.9,51.7-66.5,36c-2.8-3.7,4.6-24,16.6-45.3c12.9-21.2,23.1-52.7,23.1-70.2c0-36-22.2-73-43.4-73
		c-11.1,0-12.9,8.3-7.4,44.3c4.6,35.1,2.8,47.1-8.3,56.4c-12,10.2-15.7,10.2-18.5,0c-15.7-48-24-127.5-24-230
		c0-100.7-1.8-120.1-13.9-120.1c-7.4,0-42.5-26.8-78.5-59.1c-57.3-52.7-73.9-62.8-154.3-89.6c-109-35.1-147.8-54.5-176.4-85
		c-25.9-27.7-37.9-87.8-19.4-99.8c20.3-12,24.9-10.2,41.6,19.4c18.5,31.4,47.1,49,31.4,18.5c-13.9-26.8-11.1-43.4,13.9-83.1
		c12.9-20.3,23.1-43.4,23.1-50.8c0-14.8,0-14.8,102.5,10.2c82.2,20.3,100.7,17.6,100.7-12c0-34.2-30.5-82.2-61.9-97.9
		c-13.9-7.4-67.4-26.8-119.2-42.5c-87.8-27.7-161.7-73-134.9-82.2c17.6-5.5,12.9-23.1-20.3-93.3c-36-76.7-51.7-73-51.7,11.1
		c0,46.2-1.8,53.6-14.8,49c-8.3-2.8-16.6-5.5-18.5-5.5c-1.8,0-3.7-14.8-3.7-34.2c0-29.6,7.4-40.6,66.5-97l66.5-63.7l62.8,10.2
		c93.3,13.9,127.5,12,127.5-6.5c0-29.6-35.1-74.8-75.8-97.9c-22.2-12.9-83.1-40.6-136.7-61.9c-98.8-39.7-161.7-72.1-153.4-80.4
		c2.8-2.8,21.2,1.8,42.5,10.2c49.9,19.4,50.8,19.4,24.9-14.8c-12.9-16.6-29.6-44.3-37.9-60c-19.4-38.8-39.7-38.8-56.4,0.9
		c-17.6,40.6-32.3,50.8-32.3,20.3c0-27.7,35.1-71.1,87.8-107.2c21.2-14.8,44.3-38.8,49.9-53.6c11.1-26.8,12.9-26.8,36-14.8
		c28.6,14.8,91.5,16.6,125.6,3.7c18.5-6.5,24-15.7,24-35.1c0-62.8-62.8-98.8-237.4-135.8c-167.2-36-204.2-58.2-177.4-108.1
		c11.1-20.3,11.1-20.3,18.5-1.8c6.5,19.4,31.4,31.4,50.8,24.9c8.3-2.8,8.3-11.1,0.9-29.6c-8.3-22.2-5.5-32.3,13.9-66.5
		c33.3-58.2,35.1-67.4,21.2-95.2c-12.9-24-12.9-24,22.2-24c24,0,62.8,13.9,116.4,41.6c85,43.4,110.9,47.1,73.9,10.2
		c-33.3-33.3-43.4-89.6-43.4-231.9c0.9-125.6,0-128.4-12.9-90.5c-22.2,61.9-87.8,104.4-161.7,104.4c-31.4,0-88.7-57.3-100.7-100.7
		c-4.6-18.5-9.2-72.1-9.2-120.1v-86.8l110.9,7.4c61,3.7,110.9,2.8,110.9-0.9c0-3.7-7.4-14.8-15.7-24.9c-9.2-9.2-18.5-38.8-21.2-64.7
		l-4.6-47.1l-69.3-14.8c-86.8-19.4-241.1-70.2-264.2-87.8c-15.7-12-13.9-12,14.8-4.6c17.6,5.5,33.3,9.2,34.2,9.2
		c0.9,0-0.9-13.9-3.7-30.5c-2.8-17.6,1.8-45.3,10.2-65.6c17.6-41.6,19.4-99.8,4.6-127.5c-10.2-19.4-9.2-19.4,73.9-12.9
		c81.3,6.5,85,5.5,107.2-16.6c53.6-53.6,13.9-102.5-113.6-143.2c-49-15.7-109.9-33.3-134-38.8c-31.4-7.4-43.4-14.8-39.7-24
		c24-61,34.2-132.1,28.6-190.3l-6.5-64.7l99.8,6.5c77.6,3.7,107.2,2.8,128.4-7.4l27.7-12.9l-29.6-0.9c-39.7-0.9-58.2-29.6-58.2-90.5
		v-49H385c-94.2,0-157-19.4-222.6-67.4l-40.6-29.6l39.7-5.5c61.9-8.3,62.8-12.9,42.5-169.1l-6.5-45.3l79.4,6.5
		c133,11.1,149.7-14.8,57.3-86.8c-68.4-53.6-78.5-80.4-57.3-155.2c8.3-28.6,17.6-61,21.2-70.2c5.5-13.9,3.7-16.6-6.5-12.9
		c-48,20.3-45.3,23.1-45.3-49c0-76.7-7.4-96.1-33.3-87.8c-15.7,4.6-17.6,0-17.6-56.4c0-37.9-3.7-62.8-10.2-64.7
		c-8.3-2.8-12,30.5-14.8,114.6c-1.8,93.3-6.5,122.9-19.4,142.3c-14.8,22.2-51.7,45.3-72.1,45.3c-4.6,0-24.9-32.3-43.4-71.1
		l-34.2-72.1l-0.9-252.2c-1.8-246.7-0.9-252.2,17.6-265.1c11.1-7.4,27.7-13.9,36-13.9c15.7,0,15.7-1.8,1.8-23.1
		c-15.7-24-11.1-41.6,11.1-41.6c33.3,0,82.2-38.8,220.8-175.5c137.6-135.8,186.6-172.8,244.8-188.5c17.6-4.6,15.7-1.8-8.3,11.1
		c-49.9,27.7-109.9,93.3-172.8,189.4c-32.3,49-64.7,89.6-71.1,89.6c-12.9,0-52.7,58.2-52.7,77.6c0,23.1,18.5,25.9,26.8,3.7l7.4-21.2
		l7.4,23.1c16.6,53.6,24,49,68.4-38.8c129.3-260.5,333.5-414.8,855.5-644.8c188.5-83.1,189.4-84.1,189.4-79.4
		c0,5.5-74.8,49-272.5,158c-184.8,101.6-297.5,177.4-371.4,247.6c-57.3,54.5-106.2,121-118.2,160.7c-4.6,17.6-2.8,20.3,11.1,14.8
		c13.9-4.6,14.8-3.7,5.5,7.4c-5.5,7.4-12,23.1-13.9,36c-1.8,18.5-9.2,24-35.1,27.7c-39.7,5.5-43.4,23.1-27.7,113.6
		c12,67.4,18.5,70.2,37,11.1c21.2-69.3,92.4-194,151.5-268.8c135.8-169.1,292.8-280.8,662.4-470.2
		c195.8-99.8,199.5-101.6,179.2-117.3c-23.1-17.6-45.3-129.3-78.5-404.6c-35.1-279-80.4-534-98.8-554.3c-1.8-1.8-2.8,30.5-0.9,71.1
		c1.8,59.1,0,79.4-12,90.5c-12.9,12.9-17.6,2.8-49.9-108.1c-28.6-98.8-36-138.6-36-201.4c-0.9-68.4,1.8-83.1,22.2-115.5l23.1-37
		l6.5,69.3c9.2,93.3,24.9,164.4,37,171.8c6.5,4.6,8.3,0.9,4.6-8.3c-12.9-35.1-16.6-106.2-7.4-143.2c15.7-55.4,42.5-80.4,116.4-106.2
		c58.2-20.3,64.7-24.9,67.4-49c1.8-14.8,24.9-57.3,51.7-94.2l49-66.5l5.5,37.9c5.5,38.8,12,52.7,21.2,42.5
		c8.3-8.3,46.2-226.3,68.4-389.9c37-281.8,54.5-469.3,87.8-960.8c24-353.8,37.9-535.8,47.1-602.3l5.5-37.9l25.9,28.6
		c37.9,44.3,73.9,121,88.7,191.2c11.1,53.6,11.1,69.3-0.9,114.6c-19.4,73-17.6,87.8,9.2,97.9c20.3,7.4,23.1,13.9,23.1,52.7
		c0,24.9-6.5,77.6-13.9,118.2c-7.4,40.6-12.9,89.6-13.9,109c0,33.3,0.9,34.2,30.5,32.3c24.9-2.8,29.6,0,26.8,15.7
		c-6.5,41.6-9.2,44.3-51.7,37.9c-24-3.7-43.4-2.8-46.2,2.8c-3.7,4.6,2.8,43.4,13.9,85.9c23.1,87.8,25.9,170.9,13.9,412l-8.3,160.7
		l-37,28.6c-19.4,16.6-42.5,41.6-49,55.4c-13.9,24.9-12.9,24.9,10.2,19.4c21.2-5.5,23.1-2.8,23.1,24c0,16.6-6.5,67.4-14.8,112.7
		c-18.5,98.8-11.1,144.1,34.2,220.8c17.6,30.5,32.3,71.1,37,105.3c17.6,120.1,4.6,309.5-24.9,367.7c-12.9,24.9-43.4,34.2-54.5,15.7
		c-2.8-5.5-1.8-9.2,3.7-9.2c4.6,0,17.6-13.9,27.7-31.4c17.6-27.7,18.5-37,10.2-72.1c-4.6-21.2-9.2-85-9.2-139.5
		c0-102.5-11.1-146.9-40.6-171.8c-13.9-12-14.8-11.1-5.5,13.9c12.9,33.3,6.5,71.1-26.8,155.2c-14.8,36-28.6,83.1-32.3,105.3
		l-5.5,39.7l30.5-5.5c24.9-4.6,33.3-2.8,37.9,10.2c9.2,24-5.5,28.6-118.2,36c-153.4,9.2-147.8,6.5-141.3,69.3
		c4.6,53.6,37.9,134.9,72.1,174.6c18.5,23.1,27.7,20.3,38.8-12.9c1.8-5.5,38.8-8.3,91.5-6.5c56.4,1.8,91.5-0.9,95.2-7.4
		c2.8-5.5-2.8-24-13.9-41.6c-17.6-28.6-18.5-33.3-4.6-37.9c8.3-3.7,23.1,1.8,35.1,12.9c11.1,10.2,32.3,23.1,46.2,28.6
		c37,13.9,98.8,12.9,104.4-1.8c2.8-7.4-7.4-56.4-22.2-109c-53.6-188.5-75.8-382.5-57.3-502.6c14.8-98.8,37.9-154.3,124.7-291
		c79.4-125.6,130.3-232.8,139.5-291c2.8-23.1-0.9-60-10.2-97c-35.1-130.3,0-643.9,106.2-1568.6c9.2-82.2,7.4-91.5-25.9-143.2
		c-25.9-38.8-22.2-49,23.1-58.2c38.8-7.4,49.9,13.9,47.1,90.5c-1.8,32.3,0.9,69.3,5.5,83.1c6.5,22.2,4.6,26.8-18.5,37l-24.9,12
		l5.5,258.7c3.7,142.3,11.1,331.6,17.6,420.3c5.5,88.7,11.1,357.5,11.1,596.8l0.9,435.1l-50.8,53.6c-27.7,29.6-68.4,72.1-90.5,94.2
		c-21.2,21.2-37,39.7-35.1,39.7c20.3,0,106.2-37.9,180.1-79.4c129.3-73,191.2-90.5,313.2-85c75.8,2.8,109.9,9.2,145,24.9
		c42.5,18.5,106.2,69.3,106.2,85c0,2.8-25.9,12.9-56.4,22.2c-112.7,31.4-254,81.3-307.6,108.1c-78.5,39.7-148.7,109-171.8,170.9
		c-19.4,52.7-25.9,150.6-9.2,150.6c19.4,0,65.6-28.6,110.9-69.3c25.9-23.1,54.5-41.6,64.7-41.6c9.2,0,24-2.8,33.3-6.5
		c13.9-4.6,14.8-1.8,9.2,30.5c-9.2,46.2-26.8,80.4-74.8,142.3c-58.2,75.8-71.1,106.2-67.4,156.1c2.8,23.1,7.4,49.9,11.1,58.2
		c5.5,12.9,2.8,16.6-12,16.6c-10.2,0-23.1-5.5-27.7-12c-63.7-77.6-66.5-76.7-42.5,16.6c22.2,85,67.4,159.8,143.2,235.6
		c77.6,78.5,152.4,127.5,237.4,156.1c61,20.3,163.5,25.9,187.5,10.2c10.2-6.5,2.8-9.2-27.7-9.2c-47.1-0.9-131.2-26.8-135.8-42.5
		c-5.5-17.6,67.4-40.6,211.6-68.4c73.9-14.8,160.7-37,191.2-49c31.4-12.9,56.4-21.2,56.4-20.3c0,1.8-26.8,24-61,50.8
		c-70.2,55.4-78.5,71.1-52.7,92.4c19.4,15.7,19.4,15.7-18.5,40.6c-79.4,51.7-244.8,85-368.6,75.8c-193.1-13.9-302.1-93.3-303-219.9
		c0-45.3-3.7-56.4-32.3-90.5c-76.7-92.4-134-267-134-413.9c0-137.6,50.8-291.9,123.8-376.9c45.3-52.7,118.2-97,189.4-116.4l61-15.7
		h-73l-73-0.9l-38.8,40.6c-21.2,22.2-63.7,57.3-94.2,77.6c-31.4,21.2-70.2,54.5-87.8,75.8c-53.6,61.9-75.8,161.7-53.6,238.3
		c4.6,17.6,14.8,77.6,23.1,134c34.2,239.3,143.2,742.7,202.3,938.6c16.6,52.7,24,99.8,24,145c0,58.2,2.8,70.2,24,95.2
		c12.9,15.7,27.7,28.6,31.4,28.6c17.6,0,47.1-42.5,61.9-89.6c8.3-26.8,16.6-47.1,19.4-45.3c1.8,2.8,4.6,25.9,6.5,51.7
		c5.5,81.3,11.1,83.1,149.7,51.7c132.1-29.6,533-34.2,677.2-7.4l41.6,7.4l-58.2,7.4c-88.7,10.2-205.1,47.1-299.3,94.2l-84.1,42.5
		l77.6,77.6c41.6,42.5,74.8,79.4,72.1,81.3c-2.8,2.8-31.4-7.4-64.7-23.1c-97-47.1-102.5-48-96.1-26.8c5.5,17.6,2.8,18.5-30.5,12.9
		s-42.5-0.9-105.3,42.5l-69.3,48l-96.1,7.4c-119.2,8.3-203.2,36-391.7,131.2c-201.4,101.6-346.4,221.7-401.9,333.5
		c-15.7,32.3-29.6,73.9-30.5,93.3c-1.8,18.5-7.4,37.9-13.9,41.6c-9.2,5.5-9.2,13.9-1.8,32.3c4.6,13.9,9.2,36,9.2,49.9
		c-0.9,24.9-0.9,24.9-16.6,5.5c-15.7-18.5-15.7-15.7-16.6,69.3c0,126.6-31.4,215.2-105.3,299.3c-53.6,60-108.1,90.5-175.5,96.1
		c-46.2,4.6-61.9,1.8-103.5-18.5c-63.7-31.4-109.9-77.6-90.5-89.6c12-7.4,12-12.9-1.8-37.9c-20.3-34.2-21.2-45.3-3.7-45.3
		c7.4,0,24.9,26.8,40.6,58.2c16.6,36,38.8,67.4,56.4,80.4c37,25.9,46.2,18.5,21.2-15.7c-85-121-126.6-293.8-104.4-437
		c10.2-63.7,56.4-219.9,73.9-248.5c12.9-20.3,55.4-3.7,73,26.8c8.3,15.7,23.1,27.7,31.4,27.7c28.6,0,25.9-15.7-6.5-40.6
		c-44.3-34.2-56.4-59.1-37.9-77.6c11.1-12,16.6-12.9,25.9-3.7c17.6,17.6,45.3,12.9,64.7-12c26.8-35.1,153.4-114.6,321.5-203.2
		c84.1-44.3,172.8-95.2,197.7-112.7c32.3-23.1,47.1-29.6,54.5-22.2c5.5,5.5,22.2,10.2,36,10.2c19.4,0,25.9-4.6,25.9-18.5
		c0-22.2,30.5-38.8,129.3-70.2c41.6-12.9,82.2-30.5,90.5-38.8c14.8-14.8,18.5-13.9,68.4,9.2c28.6,13.9,54.5,29.6,58.2,35.1
		s17.6,0,37-14.8c27.7-21.2,36-23.1,86.8-16.6c73.9,8.3,73-6.5-1.8-36c-191.2-76.7-412-50.8-676.2,78.5
		c-35.1,17.6-151.5,76.7-256.8,131.2c-105.3,55.4-194,97.9-196.8,95.2c-2.8-1.8,38.8-31.4,90.5-64.7
		c86.8-55.4,151.5-108.1,132.1-108.1c-3.7,0-45.3,17.6-91.5,39.7c-180.1,85-329.8,206.9-408.3,331.6c-25.9,40.6-61,125.6-57.3,137.6
		c5.5,15.7,73-78.5,68.4-96.1c-2.8-10.2,1.8-18.5,11.1-22.2c8.3-2.8,28.6-15.7,45.3-27.7l29.6-21.2l-12.9,31.4
		c-7.4,17.6-17.6,49.9-23.1,73c-14.8,69.3-26.8,93.3-39.7,82.2c-9.2-7.4-11.1,4.6-8.3,57.3c4.6,85-26.8,182-89.6,279.9l-44.3,69.3
		l15.7,55.4c9.2,29.6,19.4,71.1,23.1,91.5c9.2,53.6,26.8,39.7,32.3-25.9c7.4-95.2,29.6-91.5,46.2,8.3c19.4,113.6-0.9,193.1-74.8,291
		c-35.1,46.2-35.1,49-15.7,49c43.4,0,48,14.8,12.9,41.6c-18.5,13.9-33.3,28.6-33.3,32.3c0,4.6,22.2,15.7,49,24.9
		c38.8,12.9,76.7,16.6,191.2,16.6c156.1,0,237.4-12.9,378.8-59.1c45.3-15.7,111.8-28.6,157-32.3c164.4-12.9,284.5-39.7,651.3-144.1
		c343.7-97.9,466.5-124.7,609.7-131.2l55.4-2.8l24.9,46.2c13.9,25.9,33.3,71.1,43.4,100.7c15.7,49.9,17.6,53.6,27.7,36
		c17.6-33.3,12-69.3-22.2-139.5c-17.6-37-27.7-66.5-24-66.5c12,0,72.1,69.3,89.6,103.5c21.2,40.6,27.7,145,11.1,166.3
		c-15.7,20.3-456.4,152.4-780.6,233.7c-168.1,41.6-494.2,109.9-584.8,121c-44.3,5.5-56.4,12-101.6,55.4
		c-49.9,47.1-51.7,48-76.7,35.1c-85.9-45.3-334.4-10.2-401.9,57.3c-27.7,27.7-32.3,29.6-45.3,17.6c-7.4-7.4-28.6-13.9-48-13.9
		c-30.5,0-36,3.7-49.9,32.3c-14.8,31.4-14.8,32.3,5.5,46.2c48,31.4,105.3,43.4,220.8,48c130.3,5.5,203.2-4.6,279-37.9
		c51.7-24,96.1-64.7,80.4-74.8c-14.8-8.3-12-32.3,3.7-32.3c8.3,0,13.9,8.3,13.9,21.2c0,11.1,6.5,30.5,14.8,42.5
		c14.8,20.3,19.4,21.2,80.4,15.7c36-3.7,130.3-20.3,208.8-37.9c134-29.6,238.3-58.2,601.4-165.4c217.1-63.7,363.1-97,478.5-109
		c97-11.1,116.4-16.6,94.2-30.5c-12.9-8.3-11.1-23.1,2.8-23.1c15.7,0,65.6,52.7,83.1,88.7c20.3,38.8,47.1,147.8,40.6,163.5
		c-6.5,16.6-248.5,120.1-422.2,180.1c-340,117.3-801.9,226.3-1298,306.7c-242,38.8-218.9,30.5-202.3,70.2
		c16.6,38.8,13.9,83.1-3.7,79.4c-7.4-0.9-10.2,0.9-7.4,5.5c8.3,13.9,205.1,20.3,327,11.1c240.2-19.4,417.6-60,894.3-206.9
		c400.9-122.9,544.1-159.8,692.9-176.4l56.4-6.5l20.3,48c28.6,65.6,42.5,136.7,34.2,176.4c-5.5,32.3-10.2,35.1-91.5,71.1
		c-310.4,136.7-746.4,267-1179.7,352c-78.5,15.7-151.5,30.5-161.7,33.3c-12.9,2.8-23.1,19.4-34.2,57.3
		c-9.2,29.6-26.8,66.5-38.8,81.3l-23.1,27.7l-0.9-28.6c0-15.7,4.6-41.6,10.2-58.2c13.9-39.7,5.5-60-20.3-47.1
		c-10.2,6.5-73.9,14.8-140.4,19.4c-193.1,13.9-226.3,29.6-215.2,102.5c3.7,22.2,12.9,49.9,21.2,61.9c13.9,22.2,15.7,22.2,121.9,15.7
		c206-12,427.7-49,670.7-111.8c201.4-51.7,655.9-195.8,819.4-260.5c125.6-49,127.5-49,199.5-43.4c61.9,5.5,74.8,3.7,87.8-10.2
		c9.2-9.2,18.5-14.8,20.3-12c6.5,6.5,59.1,169.1,64.7,202.3c5.5,30.5,2.8,36-30.5,64.7c-92.4,78.5-197.7,123.8-482.2,207.9
		c-488.7,145-613.4,178.3-802.8,212.5c-55.4,10.2-93.3,22.2-104.4,33.3c-9.2,9.2-20.3,16.6-25.9,16.6c-4.6,0-9.2,8.3-9.2,18.5
		c0,15.7-3.7,17.6-24.9,12c-14.8-4.6-75.8-7.4-136.7-7.4c-89.6,0-123.8,3.7-175.5,20.3c-89.6,29.6-87.8,26.8-76.7,85.9
		c13.9,79.4,7.4,77.6,192.2,71.1c233.7-7.4,395.4-43.4,840.7-186.6c453.6-146,598.6-186.6,765.8-217.1
		c58.2-10.2,110.9-18.5,117.3-18.5c24,0,48,125.6,42.5,222.6c-1.8,32.3-3.7,34.2-82.2,71.1c-185.7,85.9-444.4,172.8-926.6,311.3
		c-134.9,38.8-300.2,86.8-366.8,108.1c-119.2,37.9-122.9,39.7-122.9,64.7c0,13.9-3.7,25.9-9.2,25.9c-4.6,0-9.2-8.3-9.2-18.5
		c0-11.1-11.1-29.6-24-43.4c-21.2-21.2-28.6-23.1-85.9-19.4c-44.3,1.8-88.7,13.9-156.1,39.7c-102.5,39.7-102.5,39.7-67.4,100.7
		c39.7,70.2,97,81.3,273.4,51.7c132.1-22.2,193.1-19.4,249.4,9.2l34.2,17.6l-4.6-20.3c-1.8-11.1-7.4-26.8-10.2-35.1
		c-5.5-12.9-0.9-15.7,25.9-15.7c17.6,0,59.1-11.1,93.3-24.9c51.7-20.3,66.5-23.1,89.6-14.8c38.8,13.9,40.6,12.9,20.3-9.2
		c-14.8-15.7-14.8-20.3-3.7-27.7c19.4-12,160.7-57.3,300.2-94.2c66.5-18.5,242-73,391.7-121c288.2-94.2,433.3-135.8,438.8-126.6
		c19.4,31.4,51.7,169.1,51.7,217.1v59.1l-195.8,83.1c-419.4,179.2-789.9,297.5-1106.7,352.9c-33.3,6.5-64.7,14.8-70.2,19.4
		c-6.5,4.6-36,21.2-67.4,36c-31.4,15.7-56.4,31.4-56.4,36s-15.7,0-34.2-10.2c-29.6-14.8-47.1-17.6-109-13.9
		c-75.8,5.5-180.1,35.1-198.6,57.3c-12.9,15.7,3.7,84.1,25.9,109.9c13.9,14.8,25.9,15.7,121.9,10.2
		c239.3-13.9,445.3-51.7,688.2-126.6c50.8-15.7,248.5-85.9,438.8-155.2c363.1-134,523.8-187.5,536.7-180.1
		c3.7,2.8,15.7,33.3,27.7,67.4c24.9,77.6,40.6,97,65.6,84.1c10.2-5.5,20.3-7.4,22.2-5.5c9.2,9.2,5.5,67.4-6.5,99.8
		c-11.1,30.5-19.4,36-126.6,81.3c-194,83.1-342.7,136.7-727,264.2c-203.2,67.4-419.4,139.5-479.5,161.7l-109.9,38.8l-71.1-12
		c-60-9.2-83.1-9.2-160.7,4.6c-49,8.3-110.9,24-135.8,34.2c-44.3,19.4-45.3,20.3-29.6,37.9c9.2,10.2,24.9,36,35.1,57.3l18.5,37.9
		l106.2-0.9c276.2-1.8,576.5-79.4,1150.1-297.5c107.2-40.6,240.2-88.7,295.6-107.2c92.4-30.5,272.5-79.4,291.9-79.4
		c16.6,0,48,80.4,52.7,134.9c8.3,108.1,5.5,110.9-181.1,197.7c-550.6,256.8-903.5,374.1-1308.1,434.2c-66.5,10.2-158.9,21.2-206,24
		c-79.4,5.5-85.9,7.4-104.4,33.3c-20.3,27.7-20.3,30.5-14.8,272.5l5.5,244.8l37,42.5c39.7,44.3,51.7,73,43.4,103.5
		c-3.7,12.9,0,18.5,10.2,18.5c9.2,0,37,10.2,61.9,22.2c35.1,16.6,42.5,23.1,30.5,28.6c-8.3,2.8-27.7-0.9-43.4-9.2
		c-37-18.5-54.5-9.2-31.4,15.7c9.2,10.2,21.2,37,25.9,60l9.2,41.6l46.2,1.8c31.4,0.9,59.1,9.2,87.8,26.8l41.6,24.9l-64.7-1.8
		C2673.3,12798.2,2631.7,12795.4,2616,12794.5z M1627.5,9079.8c20.3-7.4,51.7-16.6,69.3-21.2c17.6-3.7,26.8-7.4,21.2-8.3
		c-7.4-0.9-12-15.7-12-41.6c0-46.2-7.4-51.7-67.4-51.7c-64.7,0-105.3,16.6-133,52.7c-14.8,19.4-38.8,48-54.5,64.7l-29.6,30.5l85-6.5
		C1552.7,9095.5,1607.2,9087.2,1627.5,9079.8z"/>
	<path id="XMLID_39_" class="st0" d="M2939.3,12744.6c-69.3-11.1-135.8-27.7-147.8-37.9c-14.8-14.8,97-9.2,124.7,5.5
		c15.7,8.3,27.7,12,27.7,8.3c0-2.8-59.1-66.5-130.3-141.3c-72.1-73.9-147.8-158.9-168.1-187.5c-21.2-29.6-41.6-53.6-45.3-53.6
		c-12,0-8.3,34.2,7.4,68.4c14.8,30.5,12.9,61-3.7,61c-14.8,0-69.3-131.2-73.9-176.4c-3.7-42.5-2.8-44.3,35.1-72.1
		c54.5-38.8,101.6-49.9,188.5-44.3c61,3.7,85.9,11.1,147.8,41.6c87.8,43.4,127.5,82.2,143.2,140.4c14.8,49.9,37.9,84.1,78.5,115.5
		l30.5,23.1l42.5-17.6c22.2-10.2,108.1-34.2,189.4-54.5c183.8-46.2,249.4-74.8,298.4-129.3l36-41.6l39.7,15.7
		c50.8,19.4,55.4,18.5,43.4-4.6c-14.8-27.7,3.7-66.5,48-101.6c37.9-30.5,62.8-69.3,62.8-99.8c0-13.9,8.3-20.3,35.1-24
		c58.2-10.2,102.5-23.1,108.1-31.4c2.8-4.6,0.9-19.4-4.6-33.3c-8.3-21.2-5.5-27.7,18.5-50.8c31.4-29.6,34.2-41.6,12.9-53.6
		c-12.9-7.4-6.5-12,30.5-24c24.9-8.3,93.3-46.2,151.5-83.1c101.6-66.5,103.5-69.3,73-72.1c-37.9-3.7-45.3-19.4-13.9-33.3
		c12.9-5.5,36-31.4,51.7-57.3c15.7-24.9,37-51.7,46.2-59.1c18.5-12,18.5-13.9,2.8-61c-15.7-48-15.7-49.9,6.5-119.2
		c12-38.8,21.2-85.9,21.2-105.3c0-32.3,1.8-35.1,23.1-32.3c18.5,1.8,26.8,11.1,37.9,44.3c10.2,30.5,20.3,42.5,35.1,44.3
		c24.9,3.7,24.9,10.2,1.8-139.5c-21.2-133-37.9-206-61-261.4c-12.9-30.5-15.7-33.3-24-18.5c-12.9,23.1-2.8,90.5,24.9,170.9
		c27.7,78.5,28.6,87.8,4.6,111.8c-32.3,32.3-43.4,24-38.8-31.4c4.6-57.3-20.3-121.9-76.7-200.5c-17.6-24.9-32.3-47.1-32.3-49
		c0-2.8,9.2-5.5,21.2-7.4c24-3.7,25.9-29.6,6.5-136.7c-7.4-40.6-12.9-133-12.9-223.6c0-146-5.5-180.1-19.4-118.2
		c-10.2,46.2-20.3,39.7-26.8-16.6c-3.7-29.6-20.3-113.6-37.9-187.5c-40.6-170-40.6-170.9,2.8-190.3c49-22.2,66.5-39.7,66.5-64.7
		c0-28.6-21.2-27.7-40.6,2.8c-12.9,18.5-22.2,23.1-45.3,20.3c-47.1-4.6-69.3-61-81.3-201.4c-6.5-81.3-22.2-163.5-50.8-275.3
		c-42.5-167.2-49.9-242-27.7-292.8c11.1-26.8,12-24.9,17.6,43.4c8.3,99.8,28.6,194.9,73,340c21.2,68.4,45.3,154.3,54.5,189.4
		l16.6,64.7v-47.1c1.8-131.2-50.8-511.8-110.9-793.6c-24.9-121-92.4-388-105.3-421.3c-3.7-11.1,0.9-16.6,17.6-21.2
		c30.5-7.4,31.4-23.1,1.8-17.6c-26.8,5.5-28.6-0.9-73-214.3c-25.9-125.6-28.6-156.1-30.5-328c-0.9-104.4-1.8-193.1-2.8-197.7
		c0-4.6-11.1,0.9-23.1,12l-22.2,21.2l-7.4-44.3c-21.2-130.3,1.8-274.4,70.2-432.3c33.3-76.7,37.9-84.1,60-82.2
		c25.9,1.8,70.2,26.8,146,81.3c86.8,61.9,158,64.7,297.5,11.1c85-32.3,161.7-48,161.7-33.3c0,4.6-3.7,8.3-9.2,8.3
		s-9.2,24.9-9.2,55.4c0,60,0.9,61,56.4,45.3c29.6-9.2,38.8-8.3,60,4.6c21.2,14.8,23.1,20.3,18.5,49.9c-3.7,19.4-8.3,49.9-11.1,69.3
		c-3.7,18.5-10.2,37-14.8,39.7c-4.6,3.7-65.6,25.9-134.9,50.8c-116.4,41.6-223.6,99.8-223.6,121c0,4.6,8.3,3.7,17.6-1.8
		c34.2-17.6,55.4-11.1,69.3,22.2c20.3,49.9,44.3,57.3,100.7,32.3c38.8-15.7,170-63.7,177.4-63.7c0.9,0,4.6,16.6,7.4,37.9
		c6.5,49,28.6,73,67.4,73c16.6,0,33.3,4.6,36,9.2c3.7,5.5,0.9,32.3-4.6,61c-14.8,71.1-50.8,108.1-170.9,174.6
		c-53.6,30.5-104.4,61.9-112.7,71.1c-13.9,15.7-12.9,16.6,8.3,16.6c28.6,0,46.2,19.4,44.3,48c-4.6,57.3,8.3,58.2,121,2.8
		c86.8-42.5,105.3-46.2,105.3-22.2c0,7.4,24,28.6,53.6,48c59.1,39.7,61.9,48,33.3,114.6c-10.2,24.9-16.6,54.5-13.9,68.4
		c3.7,21.2-1.8,26.8-96.1,72.1c-55.4,26.8-109,58.2-120.1,70.2l-20.3,21.2l38.8,35.1c28.6,26.8,37.9,39.7,34.2,56.4
		c-1.8,12,0,21.2,4.6,21.2c3.7,0,40.6-16.6,81.3-37c75.8-37.9,122.9-49,101.6-24c-17.6,22.2-7.4,56.4,16.6,59.1
		c19.4,2.8,20.3,0.9,12-15.7c-13.9-25.9-12.9-28.6,12-28.6c18.5,0,23.1,6.5,32.3,40.6c14.8,59.1,12,106.2-7.4,148.7
		c-19.4,44.3-93.3,112.7-164.4,153.4c-48,27.7-50.8,30.5-30.5,37.9c19.4,7.4,20.3,12,14.8,52.7c-10.2,77.6,12.9,80.4,119.2,15.7
		c71.1-42.5,118.2-45.3,96.1-4.6c-11.1,21.2-6.5,22.2,29.6,2.8c49-24.9,53.6-15.7,49,85.9c-7.4,154.3-3.7,145-88.7,188.5
		c-51.7,27.7-82.2,50.8-100.7,75.8c-14.8,20.3-26.8,40.6-26.8,44.3s13.9,4.6,31.4,1.8c37.9-5.5,47.1,5.5,25.9,35.1
		c-14.8,20.3-25.9,63.7-16.6,63.7c1.8,0,24.9-13.9,50.8-31.4c41.6-27.7,98.8-53.6,164.4-73.9c30.5-9.2,40.6,23.1,46.2,154.3
		c6.5,126.6,8.3,123.8-90.5,182c-60,36-128.4,93.3-128.4,109c0,3.7,11.1,7.4,24,6.5c13.9,0,28.6,7.4,35.1,15.7
		c8.3,13.9,2.8,24-35.1,61.9c-30.5,30.5-43.4,50.8-39.7,61c5.5,12,14.8,9.2,59.1-21.2c104.4-70.2,129.3-77.6,180.1-51.7l27.7,14.8
		l-6.5-47.1c-7.4-51.7,3.7-74.8,33.3-74.8c23.1,0,30.5,33.3,23.1,110.9c-5.5,49-3.7,70.2,8.3,91.5c7.4,15.7,18.5,28.6,23.1,28.6
		c38.8,0-50.8,90.5-170.9,172.8c-80.4,54.5-146.9,113.6-128.4,113.6c4.6,0,30.5-14.8,56.4-32.3c26.8-17.6,50.8-32.3,53.6-32.3
		c9.2,0,4.6,56.4-5.5,76.7c-6.5,11.1-32.3,42.5-58.2,70.2c-59.1,63.7-42.5,73,35.1,18.5c133-93.3,174.6-119.2,188.5-119.2
		c10.2,0.9,7.4,5.5-9.2,14.8c-34.2,17.6-49,47.1-34.2,64.7c24.9,30.5,64.7-0.9,81.3-64.7c5.5-22.2,15.7-44.3,23.1-50.8
		c10.2-8.3,15.7-4.6,27.7,21.2c27.7,59.1,12.9,112.7-59.1,219.9c-42.5,61-32.3,68.4,26.8,21.2c24.9-20.3,44.3-29.6,49.9-24
		c21.2,21.2-54.5,94.2-219.9,210.6c-61,42.5-122.9,87.8-138.6,99.8c-50.8,41.6-5.5,24,70.2-27.7c104.4-71.1,134-67.4,104.4,13.9
		c-7.4,23.1-32.3,101.6-53.6,175.5c-50.8,170.9-53.6,178.3-194.9,425.9c-254,445.3-308.6,499.8-626.3,619
		c-82.2,30.5-132.1,56.4-198.6,103.5c-49,34.2-118.2,76.7-154.3,94.2c-64.7,31.4-211.6,69.3-401.9,101.6
		c-85.9,14.8-277.1,20.3-307.6,8.3c-12-4.6-15.7-0.9-13.9,15.7c2.8,18.5-2.8,22.2-32.3,27.7c-40.6,6.5-57.3,19.4-49.9,39.7
		c8.3,21.2,194,19.4,386.2-3.7c142.3-17.6,364.9-23.1,331.6-7.4c-18.5,8.3-404.6,131.2-485,154.3
		C3252.5,12742.7,3055.7,12762.1,2939.3,12744.6z"/>
	<path id="XMLID_38_" class="st0" d="M2778.6,12647.6c-15.7-17.6-35.1-45.3-42.5-61c-13.9-26.8-13.9-27.7,1.8-19.4
		c9.2,5.5,24.9,18.5,34.2,28.6c10.2,11.1,24.9,19.4,35.1,19.4c12.9,0,16.6,7.4,16.6,32.3
		C2823.8,12688.2,2814.6,12688.2,2778.6,12647.6z"/>
	<path id="XMLID_37_" class="st0" d="M1317.1,12528.4c-61.9-21.2-113.6-68.4-179.2-162.6c-19.4-27.7-46.2-64.7-59.1-82.2
		c-22.2-29.6-22.2-30.5-4.6-24.9c26.8,8.3,49.9-1.8,49.9-22.2c0-9.2-8.3-37-18.5-61c-19.4-45.3-21.2-97-4.6-102.5
		c14.8-4.6,76.7,103.5,169.1,292.8c46.2,94.2,82.2,171.8,82.2,172.8C1351.3,12538.6,1335.6,12534.9,1317.1,12528.4z"/>
	<path id="XMLID_36_" class="st0" d="M1007.6,12096.1c7.4-45.3,9.2-48,28.6-41.6c17.6,7.4,17.6,33.3-0.9,60
		C1012.2,12147.8,1001.2,12139.5,1007.6,12096.1z"/>
	<path id="XMLID_35_" class="st0" d="M4116.3,10702c-30.5-30.5-60-119.2-39.7-119.2c30.5,0,76.7,71.1,77.6,118.2
		C4154.1,10727,4141.2,10727,4116.3,10702z"/>
	<path id="XMLID_34_" class="st0" d="M4018.3,9003.1c-16.6-49-30.5-99.8-30.5-113.6c0-23.1,1.8-24.9,19.4-15.7
		c29.6,16.6,54.5,80.4,54.5,143.2c0,30.5-3.7,60-7.4,65.6S4034,9052.1,4018.3,9003.1z"/>
	<path id="XMLID_33_" class="st0" d="M3814.2,8974.5l-21.2-26.8l20.3-29.6c14.8-20.3,22.2-24.9,24.9-15.7
		c2.8,7.4,8.3,18.5,13.9,24.9c7.4,9.2,11.1,9.2,16.6,0c3.7-6.5,10.2-9.2,12.9-5.5c3.7,3.7-33.3,69.3-44.3,77.6
		C3836.3,9000.3,3826.2,8988.3,3814.2,8974.5z"/>
	<path id="XMLID_32_" class="st0" d="M3969.4,8775.9c0-38.8-11.1-133-24-210.6c-28.6-170-39.7-282.7-32.3-322.4
		c11.1-50.8,81.3,312.2,97.9,504.4c6.5,73.9-0.9,98.8-28.6,98.8C3972.1,8846.1,3969.4,8829.4,3969.4,8775.9z"/>
	<path id="XMLID_31_" class="st0" d="M3823.4,8813.7c-14.8-33.3-13.9-60,2.8-60c7.4,0,13.9,7.4,13.9,17.6c0,9.2,6.5,22.2,13.9,28.6
		c19.4,15.7,17.6,37-2.8,37C3841,8836.8,3829,8826.7,3823.4,8813.7z"/>
	<path id="XMLID_30_" class="st0" d="M126.3,8513.5c0-23.1,3.7-27.7,23.1-27.7s23.1,4.6,23.1,27.7c0,23.1-3.7,27.7-23.1,27.7
		S126.3,8536.6,126.3,8513.5z"/>
	<path id="XMLID_29_" class="st0" d="M3863.1,8150.4c-8.3-40.6-2.8-73,12-78.5c7.4-2.8,11.1,11.1,11.1,48
		C3886.2,8178.2,3871.4,8196.6,3863.1,8150.4z"/>
	<path id="XMLID_28_" class="st0" d="M1826.1,7779.1c-27.7-14.8-26.8-20.3,2.8-40.6c12-8.3,44.3-40.6,71.1-73
		c43.4-52.7,93.3-94.2,113.6-94.2c12,0-2.8,83.1-24,132.1C1956.4,7782.8,1888.9,7814.2,1826.1,7779.1z"/>
	<path id="XMLID_27_" class="st0" d="M2243.7,7140.7c3.7-29.6,29.6-49.9,44.3-35.1c7.4,7.4,4.6,17.6-12,35.1
		C2247.4,7171.2,2240,7171.2,2243.7,7140.7z"/>
	<path id="XMLID_26_" class="st0" d="M1572.1,6841.4c2.8-4.6,10.2-9.2,14.8-9.2c5.5,0,6.5,4.6,3.7,9.2c-2.8,5.5-10.2,9.2-14.8,9.2
		C1570.2,6850.6,1569.3,6846.9,1572.1,6841.4z"/>
	<path id="XMLID_25_" class="st0" d="M2801.7,5565.6c-24.9-24.9-25.9-27.7-12-49c8.3-12,32.3-34.2,54.5-49
		c21.2-14.8,45.3-37,52.7-50.8c12.9-22.2,12-25.9-14.8-57.3c-40.6-46.2-72.1-101.6-95.2-171.8c-24.9-74.8-35.1-239.3-19.4-315
		c24-117.3,94.2-212.5,183.8-252.2c38.8-17.6,42.5-17.6,97-2.8c31.4,9.2,96.1,24.9,143.2,36c47.1,11.1,85,24.9,85,31.4
		c0,5.5-6.5,28.6-13.9,49.9c-18.5,51.7-17.6,75.8,3.7,103.5l17.6,22.2l-49.9,68.4c-27.7,37.9-107.2,153.4-175.5,256.8
		c-97.9,146.9-122.9,190.3-114.6,200.5c5.5,6.5,29.6,19.4,52.7,26.8c131.2,44.3,250.4-13.9,319.6-154.3
		c31.4-64.7,42.5-115.5,43.4-195.8c0.9-91.5,18.5-56.4,24.9,49c5.5,97-11.1,172.8-57.3,256.8c-35.1,61.9-92.4,120.1-129.3,129.3
		c-36,9.2-98.8-1.8-146.9-25.9l-42.5-20.3l-53.6,56.4c-28.6,31.4-68.4,63.7-86.8,72.1C2827.5,5597,2834.9,5597.9,2801.7,5565.6z"/>
	<path id="XMLID_24_" class="st0" d="M2939.3,3784.5c-28.6-12.9-33.3-18.5-21.2-24c14.8-6.5,65.6,14.8,76.7,32.3
		C3003.1,3806.7,2980,3803.9,2939.3,3784.5z"/>
	<path id="XMLID_23_" class="st0" d="M2075.5,3220c0-4.6,5.5-9.2,12.9-9.2c7.4,0,15.7-6.5,18.5-14.8c3.7-8.3,8.3-12.9,12-9.2
		c6.5,6.5-23.1,42.5-36,42.5C2079.2,3229.3,2075.5,3225.6,2075.5,3220z"/>
	<path id="XMLID_22_" class="st0" d="M2060.8,2965.1c2.8-8.3,5.5-18.5,5.5-23.1c0-4.6,4.6-8.3,11.1-8.3c5.5,0,18.5-7.4,28.6-15.7
		c12.9-12,11.1-5.5-7.4,23.1C2073.7,2978.9,2049.7,2994.6,2060.8,2965.1z"/>
	<path id="XMLID_21_" class="st0" d="M1925,2954.9c-10.2-9.2-7.4-75.8,2.8-96.1c12.9-22.2,37-23.1,37,0c0,9.2,2.8,29.6,5.5,44.3
		C1977.6,2938.3,1945.3,2975.2,1925,2954.9z"/>
	<path id="XMLID_20_" class="st0" d="M3595.2,2896.7c-8.3-12.9,46.2-68.4,59.1-61c15.7,10.2,12,37.9-6.5,54.5
		C3628.5,2907.8,3603.5,2910.6,3595.2,2896.7z"/>
	<path id="XMLID_19_" class="st0" d="M1789.2,2593.7c-1.8-76.7,167.2-209.7,279-221.7c55.4-5.5,92.4,8.3,44.3,15.7
		c-29.6,5.5-32.3,8.3-29.6,36c1.8,28.6-9.2,39.7-21.2,20.3c-7.4-12-70.2-12-87.8,0c-12,8.3-11.1,11.1,3.7,23.1
		c10.2,7.4,27.7,13.9,38.8,13.9c45.3,0,68.4,24,29.6,29.6c-13.9,1.8-25.9,13.9-34.2,33.3c-10.2,22.2-19.4,29.6-32.3,27.7
		c-16.6-2.8-19.4-9.2-19.4-47.1c-0.9-75.8-45.3-83.1-94.2-15.7C1818.7,2575.2,1790.1,2606.6,1789.2,2593.7z"/>
	<path id="XMLID_18_" class="st0" d="M2084.8,2591.8c-10.2-6.5-11.1-12.9-1.8-31.4c14.8-32.3,29.6-30.5,29.6,2.8
		C2112.5,2594.6,2103.3,2603.9,2084.8,2591.8z"/>
	<path id="XMLID_17_" class="st0" d="M2918.1,2425.6c-30.5-7.4-55.4-24-47.1-31.4c5.5-5.5,128.4,21.2,146,31.4
		C3035.4,2436.6,2963.3,2436.6,2918.1,2425.6z"/>
	<path id="XMLID_16_" class="st0" d="M1853.8,2379.4c-16.6-10.2-14.8-11.1,39.7-31.4c40.6-15.7,80.4-54.5,68.4-66.5
		c-2.8-2.8-24,7.4-47.1,23.1c-43.4,29.6-97.9,47.1-97.9,31.4c0-5.5,12.9-24.9,27.7-44.3c31.4-39.7,31.4-53.6,0.9-58.2
		c-46.2-7.4-32.3-45.3,28.6-76.7c21.2-11.1,37-26.8,40.6-41.6c8.3-31.4,0.9-35.1-32.3-18.5c-14.8,8.3-30.5,14.8-34.2,14.8
		c-10.2,0,6.5-112.7,24-164.4c16.6-46.2,16.6-49,1.8-43.4c-28.6,11.1-33.3,9.2-37-11.1c-4.6-32.3,22.2-78.5,66.5-113.6
		c37.9-29.6,61-61.9,61-83.1c0-17.6-24.9-8.3-51.7,18.5c-34.2,35.1-45.3,35.1-26.8,0.9c16.6-33.3,60-68.4,116.4-92.4
		c43.4-19.4,256.8-78.5,262.4-73c1.8,1.8-0.9,21.2-6.5,43.4c-9.2,36-8.3,42.5,6.5,52.7c21.2,15.7,29.6,9.2,13.9-10.2
		c-9.2-11.1-6.5-19.4,17.6-46.2c15.7-18.5,28.6-37,28.6-41.6c0-18.5,473.9,1.8,506.3,22.2c4.6,2.8,13.9,24,19.4,47.1
		c10.2,39.7,21.2,51.7,32.3,33.3c2.8-4.6,13.9-6.5,24-3.7c28.6,7.4,23.1-22.2-6.5-37.9c-33.3-18.5-22.2-17.6,65.6,2.8
		c39.7,10.2,78.5,24,86.8,31.4c12.9,12.9,12,16.6-1.8,38.8c-23.1,34.2-7.4,49,34.2,34.2c55.4-20.3,67.4-14.8,102.5,42.5
		c38.8,64.7,85,176.4,98.8,242c5.5,26.8,8.3,83.1,6.5,123.8c-4.6,85.9-26.8,144.1-78.5,206.9l-34.2,41.6l-73.9-5.5
		c-41.6-2.8-118.2-18.5-171.8-34.2c-53.6-15.7-127.5-31.4-163.5-34.2l-67.4-5.5v-29.6c0-15.7-5.5-37-12.9-46.2
		c-12-16.6-12.9-16.6-23.1,1.8c-5.5,11.1-7.4,25.9-5.5,33.3c4.6,10.2-32.3,13.9-228.2,18.5c-291,7.4-328.9,13.9-447.1,72.1
		C1889.9,2390.5,1876.9,2394.1,1853.8,2379.4z"/>
	<path id="XMLID_15_" class="st0" d="M2359.2,2363.7c-3.7-2.8-6.5-9.2-6.5-13.9c0-10.2,135.8-9.2,142.3,0.9
		C2503.3,2363.7,2372.1,2377.5,2359.2,2363.7z"/>
	<path id="XMLID_14_" class="st0" d="M3974,1681c-24-37-85-58.2-211.6-73c-125.6-14.8-162.6-27.7-299.3-104.4
		c-44.3-24.9-131.2-67.4-193.1-93.3c-76.7-33.3-124.7-60-152.4-85.9c-37.9-36-38.8-37.9-19.4-45.3c42.5-15.7,217.1-36,313.2-36
		c300.2,0,568.1,102.5,619.9,238.3c23.1,61.9,23.1,177.4-0.9,204.2C4007.2,1711.4,3993.4,1709.6,3974,1681z"/>
	<path id="XMLID_13_" class="st0" d="M1979.5,1548.9c-2.8-4.6,2.8-10.2,12.9-12.9c11.1-2.8,27.7-24.9,42.5-56.4
		c23.1-50.8,50.8-79.4,75.8-79.4c28.6,0-24.9,127.5-62.8,147.8C2026.6,1559,1985.9,1559.9,1979.5,1548.9z"/>
	<path id="XMLID_12_" class="st0" d="M2986.4,1280c-131.2-76.7-356.6-95.2-815.7-68.4c-107.2,6.5-115.5,0.9-72.1-49.9
		c53.6-63.7,183.8-113.6,245.7-95.2c19.4,6.5,39.7,18.5,45.3,27.7c11.1,22.2,59.1,33.3,50.8,12c-2.8-8.3,1.8-28.6,11.1-46.2
		c16.6-30.5,16.6-30.5-5.5-47.1l-22.2-16.6l30.5-11.1c16.6-5.5,50.8-10.2,74.8-10.2h44.3l2.8,72.1l2.8,71.1l32.3,4.6
		c24.9,3.7,32.3,9.2,32.3,23.1c0,12.9,7.4,19.4,25.9,21.2c29.6,3.7,40.6-14.8,25.9-43.4c-13.9-24.9,3.7-35.1,25.9-15.7
		c24.9,22.2,135.8,61,174.6,60h34.2l-48-24.9c-50.8-24.9-61.9-38.8-31.4-38.8c10.2,0,24-6.5,32.3-13.9c17.6-18.5,19.4-17.6,21.2,5.5
		c2.8,27.7,27.7,52.7,81.3,79.4c60,30.5,78.5,47.1,78.5,72.1c0,12-7.4,29.6-15.7,39.7l-16.6,19.4L2986.4,1280z"/>
	<path id="XMLID_11_" class="st0" d="M2110.7,1075.9c-9.2-6.5-8.3-8.3,4.6-8.3c9.2,0,39.7-12,69.3-26.8
		c79.4-40.6,118.2-49,153.4-33.3c27.7,12,27.7,12,5.5,12.9c-12.9,0.9-51.7,12-87.8,24.9C2173.5,1075.9,2126.4,1085.1,2110.7,1075.9z
		"/>
</g>
<g id="XMLID_86_">
	<rect id="XMLID_543_" x="556.9" y="592.4" class="st1" width="813.6" height="226.9"/>
	<path id="XMLID_49_" d="M585.4,799.7l-2.4-3.6h-1.2l-0.9,1.2l0.3,4.5h-0.6l-1.2-1.5l-0.3-2.4h-7.5l-0.3-4.8l-0.6-1.5l-0.9-21.6
		l-0.6-1.2l0.6-5.7l-1.8-30l0.6-0.9l-0.3-3.9l0.3-2.7l-0.3-4.2l0.6-5.7l0.6-0.6l-0.9-0.3l-0.9-4.5l0.9-23.7l-0.9-13.2l0.9-3
		l-0.6-8.1l0.3-3.3v-4.5l-0.9-7.2V638l0.3-1.2l0.3-6.6l-0.9-10.2l-1.2-1.8l0.9-1.5l-0.6-7.2l1.2-11.4l7.5-6.3l4.8,2.4l3.3-0.9
		l-0.3-1.2l3.9,0.3h4.2l0.3-0.9l0.9,0.9h3.6l0.3-0.9l3,0.9l7.8-0.9l1.8,0.6l2.1-0.6l1.8,0.6h7.5l0.9-1.2l1.8,0.6l0.6-0.6l1.2,0.6
		h5.7l2.1,1.5h1.8l3.3,0.9l7.5,3l5.1,0.6l3.9,1.5l8.4,5.4l1.2,3.3l1.8,1.8l1.2,4.8l1.2,2.1l0.9,11.7l-1.8,16.8l-1.8,8.4l-1.2,1.5
		v-0.6l0.9-3h-0.9l-6.9,15.3l-10.5,19.2l-5.1,6l-0.3,1.8l-7.8,10.5l-3.9,3.6l-2.4,3.9l-4.5,3.3l-2.7,1.5l-5.7,5.7v-1.8l-2.7,1.2
		l-0.6-0.6l3-4.5l-0.9-1.2l-3.3,2.7l-1.2,2.4l-4.8,0.6l-2.7-1.2l-0.9,12l0.3,3v30.9l1.8,28.5l1.5,3.9h-0.9l-2.4-4.8h-1.2l-2.7,4.8
		l-2.7,1.8l-2.4,0.6l-1.8,1.8l-2.1-2.4H585.4z M600.7,704l0.9-0.6l0.9,0.6v-1.2l1.5-1.5l0.6-1.5l4.8-5.7l3.3-4.8l3.6-3.9v-1.2
		l1.8-1.8l1.2-2.7l3.3-4.2l4.2-8.4l7.5-18.9l0.3-3.6l1.2-1.2l0.6-10.8l0.6-1.5l-0.6-1.2l-1.2-9.9l-2.7-1.2l-7.5-4.5h-9.9l-1.2,0.6
		l-4.2,0.3l-6,2.4l-1.2,1.5l-0.9,5.7v23.4l0.6,6.9l-1.5,24.6l0.3,7.5l-0.9,12L600.7,704z M630.4,642.2v-0.9l2.1,0.9v0.9l-0.9-0.6
		L630.4,642.2z M635.2,707.6l0.3,0.6l-3,3.3l-0.3-0.9L635.2,707.6z M636.7,705.8l-0.6-0.6l1.8-0.3L636.7,705.8z M637.9,704.9
		l0.9-0.9v-1.2l0.6,1.5L637.9,704.9z"/>
	<path id="XMLID_396_" d="M697.3,801.5l-2.7-1.5l-4.2,2.1l-2.1-1.2l-0.6-13.5l0.6-5.1l-0.3-6l1.2-6.3v-26.4l0.9-2.1l-1.8-17.7v-32.7
		l1.8-21.6l-0.3-12.9l0.6-1.8l-0.3-3.9l0.6-1.5v-6.6l-0.6-1.2l0.6-1.2l0.9-9l-0.6-6.3l-0.9-1.5l0.6-3.9l-0.6-1.2l-0.3-3.6l0.6-2.7
		l-3.6-5.7l-0.3-3l2.4-0.9l3.6,2.4l3.9-3.3l22.2-9h3l-4.5,1.5l18-2.7l3.3-1.5l0.6-0.9l1.5,0.6l9.6-2.1l9.6,0.3l4.2,2.4l12.9,5.1
		l7.2,6.6l5.7,12.9l0.6,3.6l0.6-0.9l0.9,1.5l-1.8,1.2l0.6,9l-1.2,6.9L778,661.7l-15,22.8l-20.4,24.9l9.3,10.8l6.3,8.7l3.3,2.7
		l1.5,2.7l3.6,3.3l2.7,4.8l3.3,3.3l0.3,1.5l3.3,4.8l3,2.1l2.4,5.7l5.1,7.2l0.9,2.4l2.4,2.1v1.2l2.4,0.6l1.5,2.7l1.8,1.5l0.3,1.8
		l5.4,3.3l-1.5,2.4l-1.8,0.9l2.7,3.3l-3.3,0.6l0.9,2.1l-0.3,2.4l-0.9,0.3v2.1h-4.8l2.1,2.7l-2.4,1.5l-3.9-0.6l-5.1-4.5v-1.2
		l-0.9-0.9h-0.9l0.9,1.2l-3-0.3l-3.9-4.8l-0.6,0.6l3,4.5l1.5,0.6l0.3,3l-3-1.2h-3l-1.8,0.9l-1.5-3.9l-3,0.3l-2.1-5.1l-7.5-9.3v-0.6
		l-5.7-7.5l-9.9-16.2l-2.7-2.7l-1.8-0.6l-0.9-3.3l-5.1-5.4l-1.8-1.2l-0.6-1.8l-3-2.7l-4.8-3l-0.6,4.2l-0.9-1.8v-2.4L718,740v22.2
		l-1.5,17.1l0.3,7.8l-0.6,4.5l-1.5,2.7l-0.6,5.1l-0.9,0.6l-0.9,3.3h-4.2l-1.2,0.9l-1.2-2.4l-3.6-0.6l-2.1,2.7h-1.2L697.3,801.5z
		 M701.5,805.4h0.3l-0.3,0.6V805.4z M719.2,779.3l0.3,5.7l-0.9-0.6l-0.3-3.6L719.2,779.3z M719.2,793.1l-0.6-6l0.9-1.5l0.6,9.3
		l1.8,2.7l-1.5,0.9l-0.3-1.5L719.2,793.1z M719.5,770h0.6v0.9h-1.2L719.5,770z M719.5,772.1l0.3,2.1h-0.6l-0.3-1.2L719.5,772.1z
		 M720.4,747.2v-2.1h0.6v3.6l-1.8,0.3L720.4,747.2z M719.8,764.9l0.3,1.8l-0.6,2.1l-0.3-2.1L719.8,764.9z M720.1,757.4l0.9-0.9v2.1
		l-1.2,0.9l-0.3-2.1H720.1z M720.7,743l0.3,1.5h-1.2L720.7,743z M720.7,749.3l0.6,0.6l-0.3,4.5l-0.9,1.5l-0.3-5.7L720.7,749.3z
		 M720.4,698.6l3.3-3.3l2.1-0.6l-0.6-1.5l1.2-1.2l0.3,1.8l0.9-2.7l10.5-14.1h0.9l0.6-1.5h0.6l2.1-4.5l1.2-0.6l0.9-2.1l7.2-10.5
		l6.6-12.6l2.7-9.3l-0.3-8.7l-0.9-1.5l-0.3-4.8l-1.8-6.6l-2.4-3.3l-2.1-1.8l-4.5-1.8h-4.8l-3,1.2l-6,0.9l-3.6,1.5l-3.9,3.3l-2.4,6.9
		l-3.9,60.3l-0.6,2.7l0.6,13.5l-0.9-1.8L720.4,698.6z M730.6,590.6h-4.2l5.4-0.9L730.6,590.6z M737.8,679.4l0.9,0.6l-0.3-1.2
		L737.8,679.4z M747.7,609.8l-0.9,0.9l-8.7,2.1l2.4-1.5L747.7,609.8z M748.9,706.4h0.9l-2.4,2.1l-0.3-0.6L748.9,706.4z M757.6,626
		l0.9,0.9l-1.5,1.8l-1.2-2.7H757.6z M767.5,587.6l6,1.5l-0.9,0.6l-0.9-0.6h-2.4l-0.9,0.6l-0.9-0.6V587.6z M774.4,589.7l1.8,0.3
		l0.3,0.6h-2.1V589.7z M778.9,593.6l0.3-1.5l3.9,3.3l-3.3-1.8H778.9z M782.2,604.4l-1.8-3.9l-0.6,2.1L782.2,604.4z M780.7,798.5h1.2
		v0.9h-1.2V798.5z M784.9,598.7h0.6l1.8,3.6l-0.6,0.6l-0.6-0.3L784.9,598.7z M787.9,604.7l0.6,0.3l-1.2,1.2V605L787.9,604.7z"/>
	<path id="XMLID_421_" d="M805.3,692.3l1.2-2.1l1.2-7.2l-0.6-1.8l0.6-0.9l-0.6-2.7l0.6-0.3v-0.9h0.6l0.6,0.6l-0.6,1.2l0.6,3.6
		l-0.6,9.6l-0.6,0.3l0.6,0.9l-0.6,0.6h-1.2l-0.3-1.5L805.3,692.3z M805.9,694.4v0.6l-0.3-0.6H805.9z M806.8,718.7l0.6,7.5l-0.6,0.3
		l-0.9-7.8H806.8z M806.5,763.7l-0.6-5.1l1.2,5.1H806.5z M806.8,714.5l-0.6-4.2l0.6-12.3l0.9,0.9l0.3,22.2l-1.5-4.5L806.8,714.5z
		 M840.4,803.6l7.2-0.3l-1.5-0.9h-10.8l-4.5-1.8l-1.8-1.5l-6.3-2.7l-6.3-8.7l-3.9-9.3l-0.6-2.1v-1.2l-1.5-3l0.6-0.3l-0.9-1.2v-3
		l-1.5-0.9l0.9-2.4l-1.2-6.9l-1.2-20.7l0.6-1.2l-1.2-2.4l0.6-5.4l0.9,0.3l0.6,9.3l-0.6,3.3l1.5,6.9v10.2l1.2,4.2l1.8,9.9l0.6-1.8
		l-1.2-14.4l-0.6-1.2l-1.8-27.9l1.2-3v-2.4l-0.6-0.6l0.6-2.1l-0.6-1.5l-0.6-4.2l0.6-9.3l-0.6-5.7l1.5-4.8l-0.3-12.6l1.5-4.2
		l-0.6-3.9l0.6-5.4l-0.6-6l0.6-3.3l-1.2-1.2l-1.8,11.1h-0.6l-0.9-1.2l-0.9,0.9l-0.3-1.5l1.8-1.2l-1.2-0.6l1.2-1.5l0.6-2.1l-0.3-1.8
		l0.6-0.6l1.8-10.5l0.3-3.3l0.9-4.5l0.6-6.9l1.2-0.6v-2.7l-1.8-0.9l1.8-6.9v-1.8l0.6-0.3v-1.2l1.8-1.5l0.6-5.1l-0.9,0.9v-0.9
		l0.9-1.2l1.2-0.3l3.9-7.2l-0.3-1.8l4.2-2.4l-0.3-0.6l3.6,2.1l0.9-2.4h3.6l2.7-3l-0.3-0.9h1.5l2.1-3l2.7-0.3l-2.4,2.7l-0.9,2.7
		l5.7-1.2l-1.2,1.8l-0.6,2.4h0.9l2.1-1.8l0.9,1.8l4.2-1.5l2.1-1.8l4.8-0.3l0.6-0.6l0.9,0.6l1.5,0.6l-1.5,1.2l5.4-0.9l3.9,0.3
		l1.5-1.8l-4.2-1.5h-2.1l-0.9-0.6h4.2l-0.3-1.5l9.6,3.9l1.2,1.8l-4.5-2.1h-1.2l4.5,2.1l4.2,4.5l3.6,2.1l3,0.3l4.5,3.6l-0.6,0.9
		l3.3,2.4l1.2-0.3l-0.6,1.5l0.6,1.5l-0.6,0.6l-3.6-3.3h-2.1l12.6,15.9v-2.1l-2.1-3.6l-3.6-3.6l1.2-2.4h1.5l0.9,2.1l1.8,1.5l4.5,12.3
		l1.5,1.2l-1.2,0.6l3.6,15.9l2.4,18.3l-0.6,1.8l0.6,9.6l-0.9,2.4l0.9,1.5l0.3,4.2l-0.9,4.2l-0.6,13.5l-1.8,6l0.6,2.1l-1.2,2.4v5.4
		l-2.1,7.5l-0.9,6l-0.9,1.2l-0.3,5.1l-0.9,2.4l-2.4,9.6l-10.2,23.7l-5.7,9.3l0.3,1.5l2.7-2.1l-12,12l-6.6,4.2l-9-0.3l-10.8,3h1.2
		l-2.4,0.9v-0.3l-5.4,0.9L840.4,803.6z M809.5,669.5l-1.8,2.7v-2.4L809.5,669.5z M808.3,672.2l0.6,0.6l-1.2,0.3v-0.9H808.3z
		 M817,785.3l0.6-0.3v-2.4l-4.2-10.8l-1.5,0.9l3.9,11.1L817,785.3z M812.8,644.6l0.9-0.9l0.3-0.6l-1.5-0.9L812.8,644.6z
		 M814.6,641.6l1.2-3l0.3-6l1.8-3.3l-0.6-1.5h-1.5l-1.8,7.5L814.6,641.6z M826.6,785.9l0.9-0.3l-0.3-1.2l-1.8-2.1v-1.2l-3-6
		l-0.9,0.3l-0.9-3.3l2.1-0.3l-2.7-2.4l-2.7-14.7l0.9-1.2l-1.5-3.6l-0.3-2.4l-1.2-1.2l-1.2,0.3l1.5,17.1l0.9,5.7l3,6.6l4.8,9
		L826.6,785.9z M816.7,596.6h3.3l-3.6,4.2l0.3-1.8V596.6z M816.4,791.6l0.6-0.6l0.6,0.6H816.4z M821.5,601.7l-1.2,0.3l0.9-3
		L821.5,601.7z M822.1,597.8v-1.5l0.3,1.2L822.1,597.8z M822.7,598.4l-0.3-0.9l2.1-2.7l3.6-1.8l4.5-0.3l3,0.6h-5.7l2.4,0.9l-2.4,1.5
		l-0.6,0.3l-0.3-0.9h-2.1L822.7,598.4z M825.7,796.7l0.9-0.6h-0.9V796.7z M848.2,781.7h5.1l4.8-3l1.8-2.4l0.6-1.8l1.5-0.6l0.6-3.3
		l1.5-0.6l1.2-1.8l0.9,1.5l1.2-0.3l2.7-2.7l3.9-11.1l2.1-3.6v-3.3l1.5-2.7l0.6-3.6l1.8-3v-4.8l1.8,0.6l-0.6-6l2.4-12.6V713l0.9-4.8
		v-3l1.2-0.9l-0.6-6.3l0.3-12l0.3-0.6v-1.8l0.9-3l0.3-6.6l-0.9-0.9l0.3-1.5l-0.6-0.6l-0.6-5.1l0.9-0.9l-1.5-9.9l-0.6-6.6l-0.6-1.2
		l-0.6-4.5l-1.5-1.5l0.9-0.9l-0.3-2.4l-0.9-0.9l0.9-1.2l-1.5-1.2l-0.3-3.3l-0.9,0.6l-2.1-3.3l0.9-0.9l-1.2-3l-2.7-0.9l-0.9-2.4
		l-2.1-3.3l-3.3-3.3l-0.3-0.9l-1.8-1.5l-7.2-0.6l-4.2,2.7L853,614l3.3-1.8V611l-2.7-1.5l-0.9-1.2l-1.2-0.6l-2.7,2.1l-0.6-1.8
		l-2.1-2.1l-3.9,3.6l-1.2,6.9l-1.2,2.1l-0.6,6.3l-0.9,1.8l-0.3,5.1l-0.6,0.6v3.9l-0.9,2.1l0.6,4.2l-1.2,3l-1.2,9.6l-0.3,5.4
		l-1.2,8.1l-0.3,10.5l-0.6,1.5l-0.3,6.6l0.3,3l-0.3,9.6l-0.6,1.8l0.6,8.4l-0.6,1.5l0.3,5.4l-0.6,0.3l0.6,4.5l0.6,1.5l-0.6,2.7
		l0.6,5.7l-1.5,0.9l1.2,0.6l-0.3,2.7l0.6,6.9l0.6,0.9l-0.6,6.9l0.6,6l1.8,1.5l-0.3,0.9v4.5l1.5,1.8l0.6,3.3l3.9,6.6l5.7,6
		L848.2,781.7z M839.8,660.8l1.5-0.3l-2.1,4.8v-2.1L839.8,660.8z M840.7,771.8l2.7,2.4L841,773L840.7,771.8z M845.2,776l1.5,0.3
		l-2.1,0.9l-0.6-0.9L845.2,776z M846.7,593h-0.6l0.6-1.2V593z M848.8,589.1v0.9l-2.1,0.3L848.8,589.1z M851.5,593.3l3.9-3.9l1.8,0.6
		l3.3-0.6l1.8,0.3l-1.8,0.3l-1.2,1.8l-2.4,0.3l-1.2-1.2l-3.3,2.4l-3.9,1.8l2.1-1.8H851.5z M849.4,611.6v0.6h-0.9L849.4,611.6z
		 M851.8,602.3l0.6,0.3v-1.5h2.7l1.5-3.3l-3.3,0.3l-0.6,0.6h-1.5L851.8,602.3z M854.5,608.6l3.3-0.3l-0.3-0.9l-1.8,0.3L854.5,608.6z
		 M863.2,608v-0.9l-1.5-2.1l-2.1,0.6l0.9,1.5h0.6L863.2,608z M867.4,607.1l-1.5-1.8l-3,0.6L867.4,607.1z M887.5,717.2l1.5-1.2l0.6-3
		l1.2-1.2l-0.6-3.3l0.6-4.5l0.9-3.3l-0.6-7.2l0.6-1.2V689l0.6-0.9l-1.2-23.7l1.2,3l0.6,0.6v3.9l-0.3,1.5l0.6,7.5l1.5,1.2l0.3,3.6
		l-1.5,3.3l-0.6,9.9l2.1,3.9h2.1l-0.3-3.6l0.3-8.4l1.2-3l-0.3-2.4l0.9-1.8l-0.9-5.7l-0.9-3.6l0.6-1.5l-0.3-4.8l0.6-2.7l-1.8-3.6
		l-1.2-12.6l-3.3-14.4l-3.6-1.2l1.2-0.6l2.1-0.3l2.4,2.1l-0.9,0.9l0.3,2.4l2.1,6.3l1.5-1.5l-2.7-9.6l-0.9-1.8l-9-9.3l-1.2-1.8
		l-1.8,0.3l-2.7-3.9l-3.6-2.1H874v0.6l1.2,3l-5.7-6.6l-2.4,0.3l4.2,3v1.8l3,2.4l4.8,6l0.9,3.3l3.6,7.8l0.6,5.4l0.9,2.1l1.8,9.3
		l-0.6,3l1.8,5.1l1.2,12.9l-0.3,12l-0.6,1.5l0.6,5.4l-0.6,1.8l0.3,3l-0.3,3l-1.2,2.1l0.9,0.6l-0.6,1.2l0.3,4.2l-0.6,2.1l0.6,2.4
		l-0.6,1.5L887.5,717.2z M873.4,610.4l0.3-1.8l-6-1.2v0.6L873.4,610.4z M871,594.2h0.9l-0.9-0.9h-1.2L871,594.2z M878.5,612.8v-0.9
		l-1.8-0.9l-1.8-1.5l-0.6,1.5L878.5,612.8z M876.4,618.5l1.8,2.7l-0.3,0.6l-1.5-2.1V618.5z M879.7,598.1v0.6l-0.6-0.6H879.7z
		 M879.1,621.8l0.6,1.2l-0.6-0.6V621.8z M880,599l1.8-0.3l-1.2,1.2L880,599z M883.6,615.2l-0.3-0.9l-3-0.9v0.6L883.6,615.2z
		 M882.4,617.6h3l-1.2-1.2L882.4,617.6z M883.6,631.1v-1.2l2.1,2.1v0.9l-0.9-0.9L883.6,631.1z M885.1,635.3v0.6l-1.2-0.6H885.1z
		 M886.9,620.3v-1.5l-1.2-0.9l-0.6,0.9h-0.6v1.5H886.9z M886.3,639.8v-1.5l1.2,1.2l1.5,4.5l0.6,3l-0.3-0.3L886.3,639.8z
		 M887.2,629.9v1.8l-0.3-1.2L887.2,629.9z M889.3,610.4l-0.6-2.1l-1.2,0.3L889.3,610.4z M889.6,628.7v0.3h-0.9L889.6,628.7z
		 M893.2,779l-3,3h-0.6l2.4-3H893.2z M891.1,640.4l-0.9,0.3l-0.3-0.6L891.1,640.4z M891.7,655.1v0.6l-0.6,0.3v-0.9H891.7z
		 M894.1,597.2l0.6,0.6l-1.2,0.3v-0.6L894.1,597.2z M897.1,654.2l-1.2-3.3l0.6,2.7L897.1,654.2z M896.8,600.5l1.8,2.7l-1.5-1.2
		L896.8,600.5z M903.1,607.4v1.5l-0.6-1.2L903.1,607.4z M905.8,651.5h0.6l-2.4-15.3h-0.9l0.6,5.1l0.6,1.5l0.6,7.5L905.8,651.5z
		 M912.4,644.3l-0.6,1.5v-1.5H912.4z"/>
	<path id="XMLID_478_" d="M927.1,798.8l-5.4-1.2v-0.9l1.5-0.6l-0.6-1.5l-11.1-2.7l-2.1-1.5v-1.2l-1.2-1.2l2.4-0.9l-3-1.8l0.6-1.8
		l0.9,0.6l-0.3,0.9l2.7,0.9l0.3-2.4l4.2,1.8l1.2-0.3l-0.3-1.5l6.3,0.9l-0.6-1.2l-1.5-0.6l0.9-0.9h2.1l-0.6-2.1l1.8,0.3l0.6-0.6
		l-0.6-0.9l-1.8-0.6l6.3,0.3v-0.9l-0.9-0.6l5.4,0.3l6.3-10.2l3.9-10.8l0.9-3.9l2.1-26.4l-0.3-11.1l0.9-14.4l-0.9-3.9v-18.9L946,668
		l2.1-64.5l-0.9-0.6v-1.8l-1.2-0.6V599l2.7,2.7l1.8,0.3l2.4-2.7l1.8-1.2l3.3,0.9l2.7-0.6v-3l-1.5-1.5l0.3-1.5l3.6,2.4l0.3,1.5
		l-1.5,1.5l1.2,1.2l5.1-2.1l3,2.4h0.9l1.2-2.7l2.1,2.4l2.7,4.8l2.4,10.8l-1.5,1.5l-1.8,6.6l0.3,10.2l-1.5,6.3v45.3l1.5,20.4l-0.3,6
		l-0.6,2.1l-1.8,31.5l-4.2,21.6l-1.5,4.8h1.2l-2.4,1.5l-0.6,1.8l-9.6,12.6L943,800h-4.2l-4.2,1.2l-2.7,2.4l-2.1-4.8H927.1z
		 M910,780.8l2.7,0.9l-3.6-0.3L910,780.8z M914.8,794v0.9l-0.6-1.2L914.8,794z"/>
	<path id="XMLID_482_" d="M1023.7,798.8l-7.8-2.4l-1.8-1.2l-5.7-1.8h-2.4l-4.2-3.3l-1.5-4.5l-1.8-17.7V716l1.8-1.5l-0.3-75.6
		l0.9-2.7l-0.9-3l0.9-18.9l1.8-5.4l2.1-3l-2.1-2.7h3.9l-0.3-1.8l6.3-3l3.6-1.2l0.6-0.9h3l1.2-0.6v0.6l-2.7,0.9l-0.6,0.9l9.3-2.1
		l1.2-1.2l-0.9-0.9l15.6-1.5h7.5l2.4-0.6h9.6l0.9-0.9l-1.2-0.9h1.5l0.9,0.9l2.1,0.3l0.3,0.6h-3.6l5.4,2.7h-3.6v1.8l2.7,3l2.1,0.9
		l1.2,1.8l5.1,1.2l-5.1,0.6l-1.5,2.1h-1.8l0.3,3.3l1.5,1.2l4.5,1.5h-22.8l-10.2,2.1l-3.6,1.5l-2.4,2.7l-2.1,10.2v9.9l-0.9,2.4
		l-0.6,6.6l0.3,3.3l-1.2,14.4l5.4,0.9l0.6-0.9h1.5l0.9,0.6h10.2l6.9-1.2l0.3-1.2h3l-0.9,0.6l0.6,0.6l-0.6,1.8l1.5,1.8v0.9l-0.9,0.9
		l1.2,0.6l2.7,0.3l0.3,1.2l-1.2,0.6l-1.2,2.1l7.5,0.3l-7.8,1.8l-7.8,6.9l3,1.2v1.2l-6,2.4l-0.3,1.5h-1.8l-1.5,1.2l-2.1,0.6l-2.1,2.4
		h-0.9l-0.9,1.8l-2.7,2.4h-0.9l-0.3-1.5l4.2-4.2l5.7-3.6l4.2-4.2l-0.3-0.9l-1.5,0.9l-3.9,1.2l-6,4.2l-3,0.9l-2.7,2.4v3l-3.3,1.8
		l-0.9,14.1l0.3,2.7l-0.9,8.4l0.3,7.5l-0.6,3.3l-0.3,25.2l0.6,9.3v7.5l1.8,1.8l5.7,1.5h7.8l4.2-1.5l3-1.8h4.5l2.7-1.5l3.9-0.9
		l3.6-3.6v2.1l-1.5,1.8l2.7,0.9l4.8-1.2v0.6l3.6,0.9l2.4-2.7l0.9,0.9v1.5l-1.5,2.4l0.3,2.1l-0.6,2.7l0.3,4.2l-3.6,2.7l-1.2,2.4
		l0.3,1.8l-4.2,2.7l-5.4,0.9l-0.3,0.9l-2.1,0.9l-15.3,0.9h-16.5L1023.7,798.8z M1008.7,792.8v-1.2h-1.8L1008.7,792.8z M1048,662.3
		l-0.6,0.9l0.3-0.9H1048z M1062.4,662v1.2l-2.4,0.3v-0.6L1062.4,662z M1079.5,770.6h-1.5l-0.3-0.6L1079.5,770.6z M1079.2,769.4h-0.6
		l0.6-0.6V769.4z"/>
	<path id="XMLID_489_" d="M1113.4,797.9l-0.3-0.9l-1.8-0.3l-1.2,1.8l-1.2-0.9V794l0.3-3l-0.6-4.8h-1.2l-0.3,7.8l-0.6,2.1l-2.4,1.5
		l0.3-1.8l-1.8-1.5l1.2-0.3l0.9-1.8l-1.2-1.2l0.6-4.8l-0.3-27.9l-0.9-1.5h-0.9l-0.3,35.7l-0.6,0.6l0.6,5.1l-0.9,0.9h-3l-0.3-14.7
		l0.9-3.9l-0.9-6.3l2.4-2.1l-1.2-0.6l-0.9,0.9v-3.3l1.5-1.2l-0.3-2.1h-1.2l-0.3-0.6l1.2-0.3v-1.2l-0.9-0.6l0.9-1.2l-0.9-0.6l0.3-3.3
		l0.9-1.8l0.6-9.9l-1.5-3l2.1-1.2l-0.3-0.6h-1.2l0.9-0.9v-1.8h-0.9l-0.6-4.8l0.6-2.4l0.3-22.8l-0.3-3.3l1.2-5.4l-0.9-6.3l0.9-2.4
		h-0.6v-5.1l0.6-6.9l-0.6-3.3l1.5-4.8l-1.2-14.1l1.5-3.9l-0.6-3l0.3-1.8l-0.3-5.7l0.3-5.7l-0.6-0.6l0.6-7.8l-1.2-8.1l0.3-6.9
		l0.9-3.3l-1.5-2.4l2.7-8.4l1.8-0.6l0.3-2.4l2.7-2.7h0.6v2.4l3,0.9l1.5,1.5h1.2l0.3-1.2h1.8l1.8-2.1l1.8-1.2h0.9l1.2,4.5l2.4,3.9
		h0.9l-0.3-5.4h1.8l0.3,4.2l-0.9,66.6l0.9,0.3l0.9-10.5l-0.3-3l1.2-1.5l0.6,2.1l-0.6,4.2l0.6,3.3l-0.9,7.8l0.6,5.1h-1.5l-1.5-0.9
		l-0.3,1.2l0.3,6.6l-0.9,0.9l0.6,3.6h0.9l0.6-2.7l0.9,2.4l-0.6,3.6l-0.6,1.5l-0.3-3.3h-0.9v1.5l-0.9,1.2v8.1l0.9,1.2l2.4-2.4
		l-0.3-1.2h-0.9v-1.2h3v0.6l-1.2,0.6l0.6,1.8l2.7-0.9l-0.3-1.8l3.6-2.7v-0.6l-4.5,0.9l1.8-2.1l1.5-3h0.9l0.3,1.2l-1.8,1.2l0.3,1.5
		l0.9-0.3l2.1-3.6l1.8-0.6l0.3,0.6l-1.8,1.2l-0.3,1.2l-0.9,1.2v1.2l-2.4,5.1l-1.8,2.4h-2.1l0.3,1.2l-1.8,1.5l-1.5,4.5h1.5l2.1-3
		l1.8-1.2l2.1-4.2l6.3-6.6l-6.6,10.2l2.7-2.1l1.5-3.3l5.4-6l10.8-20.1l2.7-2.7l0.9-2.7l4.2-8.1l6.9-16.8l1.5-4.5l2.7-3.9v-1.8
		l1.5-1.8l3.9-8.4v-5.4l1.8-3l0.3-3.3l-0.6-0.9l-1.8,3.6v1.5l-5.1,10.2l0.9,0.3v1.5l-1.5,2.1l-0.3,2.7l-4.2,5.1l0.9,0.9l-1.2,0.3
		v2.7h-0.6v0.9l-1.2,1.8l-0.3,2.4l-2.1,2.1l-2.7,6.6l0.6,0.3l-2.4,1.8l-0.3,5.4l-1.8,0.9l-0.9,2.1l-0.9-0.3l2.1-3.9l0.9-3.9l9-21
		l1.5-2.1l3.9-10.2l-0.3-0.9l4.2-9.9l0.9-5.1l2.1-2.1v-1.8h1.5l2.7,1.5l1.8-3.6l3.3,0.9l2.4-4.8l-0.3,2.7l0.6,3.9l1.2,0.6l0.3,3.9
		h1.2l2.1-2.1v-4.5l1.2-0.6v1.2l-2.4,9.6l-0.6,0.6v1.8l-3,6.6l0.3,2.1l-1.8,3v1.8l-2.4,6.9l-8.1,17.1l0.6,2.1l-2.1,2.7l-0.6,2.4
		l-1.5,1.8l-2.4,4.2v1.2l-3,4.8l0.3,1.5l-3.9,3.3l0.3,2.7l-2.1,4.5l-3.6,2.1l-1.2,4.2h1.5l-3.6,2.4h0.9l-3.9,6l-0.6,2.1l-9.9,11.7
		l0.9,2.4l-0.6,0.9l0.3,1.5l2.4,1.5l10.5,11.1l2.4,1.2l3,2.4l1.5,2.1l3.6,3.9l1.5,0.6l0.9,1.5l3.9,2.1l1.5,2.7l3.6,2.4l1.2,1.5
		l1.8,0.9l6.3,5.4l2.4,2.7l1.5,0.9h0.9v0.9l3,1.2l0.6,2.7l3,1.8l3,3.6l8.4,8.4h1.2l-2.1-2.7l3.3,1.5l0.3,3.6l0.9,1.8l-0.9,0.6h-2.4
		l-5.4-3.9h-0.6l1.8,3l5.7,6l2.7,1.5l-0.3,0.6l-3.6-1.5l-2.1,0.3l-0.3-0.6l-0.6,1.2l-1.8-0.9l-0.6,0.9l0.9,1.5l-1.8,0.6v0.9
		l-1.5-0.6l-0.6,0.6l0.9,0.9l-1.8,0.3l-6.3-4.2l-1.5-2.1h-1.5l-0.6,1.5l-0.9-1.2l1.2-0.9l-1.5-0.6l-0.9-0.9v1.2h-2.4l0.6,1.2
		l1.5,0.6l-3.3,0.6l-4.8-4.2v-2.1l-3.6-3l-0.9-1.2l-2.1-1.8l-3.3-3.9l-3.3-2.1l-4.8-5.1l-12.3-11.7l-1.5-1.8l-0.9-0.3l-2.4-2.4
		l-3.6-1.5l-0.9-1.5l-2.7-1.5l-0.3-1.8l-2.4-1.5l-0.6-1.5l-3-1.5l-1.8-2.7l-1.2-0.3l-2.7-2.1l-0.6-0.9l-3-1.5l-1.2,0.3l0.3,2.7
		l0.6,0.3l-1.2,0.9l0.6,6.3l-0.9,2.7h0.9l2.1-0.6l-3,2.1l0.3,2.1l1.5,0.9l-1.2,1.2l-0.6,3.6l0.3,9.9h2.1l-0.3,0.6l-2.4,0.9v3.6
		l1.5,2.4l0.3,3l-1.2,1.8l1.2,0.9l-1.2,2.4l0.9,0.9l-0.9,5.7l0.6,0.6l-2.4,9l-3.3,2.4l-1.2,1.8l-2.1,6.3l-0.9-4.2V797.9z
		 M1104.4,799.7h0.6l0.3,1.2l0.6,0.3h-1.5V799.7z M1107.4,778.1l1.8-1.8l-1.2-1.5l1.2-3l-1.2-1.2l1.5-1.2v-3.6l-0.9-1.2l0.9-4.2
		l-0.6-3.9l-0.6-1.2v-3l-1.5-0.3v2.4l-0.3,0.9v2.7l-1.2,5.7v3.3l2.7,0.9l-0.3,4.2l-1.2,0.9l0.3,2.7l-0.6,0.9L1107.4,778.1z
		 M1108.6,766.7h-0.6l0.3-0.6L1108.6,766.7z M1121.2,593l0.3,1.2l-0.9-0.9L1121.2,593z M1124.8,750.8l-1.2,1.8l-0.3-1.8H1124.8z
		 M1124.5,757.4l-1.2,0.6v-0.6H1124.5z M1124.8,737.6l0.6,2.4h-0.9l-0.6-1.5L1124.8,737.6z M1125.1,745.7l-1.2,0.6l0.6-0.6H1125.1z
		 M1124.5,705.5h0.6l0.3-0.9l-0.6-0.9l2.1-0.3l-0.3-2.1h-0.9l-1.5,2.1L1124.5,705.5z M1125.1,734.9l-0.6,0.9l-0.3-1.2L1125.1,734.9z
		 M1124.8,674l1.5,0.3v-1.8l0.3-0.6l-0.3-2.4l-0.9-0.3l-0.3,3.6L1124.8,674z M1125.1,772.7v0.9l-0.3-0.6L1125.1,772.7z M1126,787.7
		l-0.9,0.6l0.9-1.2V787.7z M1126.3,792.8l-0.9,1.8l-0.3-1.5L1126.3,792.8z M1126.3,796.7l-0.6,0.3l-0.3-1.8L1126.3,796.7z
		 M1126.6,692.3v0.9l-0.9-0.3L1126.6,692.3z M1126.3,791.3l-0.3,0.9l-0.3-0.6L1126.3,791.3z M1126.3,676.1l1.5,2.1l-0.9,0.9
		l-0.9-1.8L1126.3,676.1z M1128.1,602.9l-0.6-3l0.3-4.2l-1.2-2.7l0.6-0.6l1.5,1.8v3.3l-0.3,2.4l0.9,1.2l-0.3,6.9l2.7-2.7l0.3,1.5
		l-2.7,4.2l-1.2,0.3l-0.9-2.7L1128.1,602.9z M1127.5,649.1l0.9,1.2l-0.9,1.2l-0.9-0.3L1127.5,649.1z M1127.5,641l-0.3-4.2l0.3-5.7
		l0.6-1.2l-1.2-8.4l0.9-3l-0.9-3.6l0.9-3.3h1.5l-0.3,2.4l0.6-1.2l0.3,2.7l-0.9,0.9l0.3,0.9l-1.2,0.6l1.5,3.3l-0.9,0.3l-0.3,6
		l0.6,0.6v2.1l-0.6,2.7l0.9,5.7l-0.9,1.8l0.3,4.5h-0.9l-0.9,0.3l0.3-1.5L1127.5,641z M1135.9,685.7h-0.6l1.5-0.9L1135.9,685.7z
		 M1140.4,682.1l-0.3-1.5l-1.2,0.9l1.2-1.8l1.2,0.6l0.3-2.1l-0.9-0.3l0.6-1.8l0.3,1.2l1.2,0.6l0.6-0.6v0.9l-3.6,6l-2.4,0.6v-0.3
		L1140.4,682.1z M1138.3,686.9h-0.6l0.6-1.5V686.9z M1140.7,689.6l0.6-2.1l2.7-2.4v0.9l-2.1,1.8l-0.6,3l-1.5,1.8l-0.3-1.2
		L1140.7,689.6z M1141,675.5l1.5-2.1l4.5-2.7l0.3,1.8l-1.8,0.9l-2.4,3.9l-0.3-3L1141,675.5z M1146.4,668l-0.6-0.9l1.5-2.1l0.3-1.5
		l1.2-1.5l-0.6-1.5l2.1-3l1.8-1.5l0.6-1.5l0.9,0.3V653l0.9-1.5l0.3,0.3l0.6-0.6l-0.3-1.5l0.6-2.4h0.9l-0.9,2.7h1.2l0.3,1.5l-1.2,1.5
		l-1.2,0.3l-0.3,0.9l0.6,0.6l-2.7,4.2l-0.3,1.8l-2.7,2.4l0.3,2.7l-4.2,3.9l-0.9,1.8l-2.1-0.9L1146.4,668z M1147.6,676.7l1.5,0.3
		l-1.5,3.6l-2.7,2.7h-0.6L1147.6,676.7z M1146.1,694.1h0.9l1.2-0.9l-0.9-0.3L1146.1,694.1z M1150,671.9l3-1.2l-4.2,5.1l-0.3-0.6
		L1150,671.9z M1150.9,660.8l0.3-0.6h-0.6L1150.9,660.8z M1152.7,665.9l0.9-0.6l0.3,1.2l-1.2,0.6l0.6-0.9L1152.7,665.9z
		 M1155.1,646.1h0.6l-1.5,3.6v-0.9L1155.1,646.1z M1157.5,641.3v1.5l-0.6-0.3L1157.5,641.3z M1157.8,644.9l-0.6,1.2l-0.3-1.2
		l2.7-0.6l-0.3,3l-1.5,0.6l0.3-0.9L1157.8,644.9z M1159.3,640.1l-0.3-1.8l1.8-2.1l-0.3-1.5l2.1-2.4l2.7-5.4v-1.5h-1.5l0.9-1.8
		l0.3-1.5l2.1-2.7l-0.3-1.5l1.5-0.9l0.6-1.2l-0.3-3l1.2-5.4l1.5-1.5l0.3-3.9l1.8-0.6l-0.9-1.2l2.7-3.3l-0.3,3.3l0.9-0.9l0.3-3
		l0.9-0.6l0.3,2.4l-0.9,3.3l-2.1,3.9l-1.8,5.4l-1.5,2.1l0.3,3l-1.2,3.6l-1.8,1.2l-1.2,5.1l-3.6,7.2l-2.7,7.8v1.8l-2.1,1.2v-0.9
		L1159.3,640.1z M1161.1,632.6l-0.3-1.8h1.5v1.5l-1.5,1.8v-0.6L1161.1,632.6z M1163.8,626.3v2.7h-1.2l-0.6-1.2L1163.8,626.3z
		 M1165.9,623.6l0.6-0.6h-0.6V623.6z M1180.3,605.6l1.2-1.5l-3,1.2L1180.3,605.6z M1180,598.1l0.9,0.6l-1.5,1.2l-0.3-1.8H1180z
		 M1180.9,600.8l-0.3,0.9l-0.6-0.3L1180.9,600.8z M1183.6,593.6l-0.6,0.9v-0.9H1183.6z M1183.9,784.4h2.1v-1.2l-2.4-0.9l-0.3,1.5
		L1183.9,784.4z M1184.2,592.1l1.5,1.8l-1.5-1.2V592.1z M1198.3,596.9l0.9,1.2l0.3,2.7l-1.2,0.6l-0.6-4.5H1198.3z M1201,609.5
		l-1.8,2.1l0.3-2.1H1201z"/>
	<path id="XMLID_538_" d="M1255,798.5l-0.9-2.4h-0.9l-1.5,0.6l-3.3-0.3l1.2-2.7l0.6-15.9l0.9-2.7l-0.6-1.5l0.3-2.4l-0.3-3.3l0.9-0.6
		l-0.6-6.3l0.6-6.9V743l-0.6-3.9l-0.3-5.7l0.3-2.1l-0.3-5.1l1.2-2.4l-0.9-1.5l-0.6-4.5l0.9-5.1l-1.5-15.9l0.9-2.4V692l-1.5-2.7
		l0.6-4.5l-0.6-6.3l0.6-4.2l-0.6-4.8l0.6-1.5l-0.6-11.7l1.2-19.8l-0.3-5.4l0.3-3l-0.6-5.1l1.2-3.6v-1.5h-1.5l-4.5,4.8h-0.6l2.1-3.6
		l3.9-2.7l0.6-1.8l-12,4.2l-1.5-0.3l-2.4,1.8l-0.6-0.6l-3.9-0.6l-3.6-2.1h-0.9l-0.6-0.9l-1.5-0.6l-2.1,2.4h-0.9l0.6-2.7l-2.4-2.1
		l-1.2,0.6l-3-0.3l0.6-1.5v-1.8l2.4-1.8l0.9-2.7l8.7-6.9l5.4-0.6l5.7-1.5l9.9-0.9l6.9,0.3l6.3-1.2l10.8-0.6l15.6,0.6l3-0.6l2.4,1.5
		l7.5-0.3l15.6,3.6l6.9,5.7v-1.5h1.8l-0.3,6.3l-2.1,1.2l-0.9,2.4l1.2,0.6l-23.1-1.5l-7.5,0.3L1282,614v3.3l1.2,0.9l-1.5,2.7l0.6,5.4
		l-1.8,23.7l-3,2.1l2.4,95.1l-0.3,3.3l-0.9,44.7l0.3,3.6l-0.9-0.3l-0.3-2.4l-4.5-0.6l-0.6,2.7l-2.1-0.6l-1.5,4.5l-2.1-1.2l-1.5,0.6
		h-1.2l-1.5-1.2l-0.9,0.9l-0.6-2.4l-3.3-2.4l-0.3,4.8l-1.5-3.6L1255,798.5z M1225.6,618.5l-0.6-0.3l0.6-0.3V618.5z M1278.7,800.3
		l-0.3,1.8l-0.3-2.7L1278.7,800.3z M1308.7,616.4l0.3,0.3l-0.3,1.2l-0.3-0.6L1308.7,616.4z"/>
</g>
<g id="XMLID_2_">
	<rect id="XMLID_389_" x="556.6" y="855.2" class="st1" width="1032" height="300.5"/>
	<path id="XMLID_7_" d="M592.2,1132.4l-1.6,1.2l-2-2l-1.2,4.4H585l-0.4-2l-2.8-1.2l-5.6,0.8l-0.8-18l0.8-5.2l-1.2-17.2l5.6-89.6
		l-0.4-4.8l1.2-2l-1.2-4l0.8-0.8l-0.8-14.8l1.6-0.4l-3.2-58.8l0.8-0.8l-0.8-1.6l-1.2-22.8l-2-4.8l1.2-1.6l-3.6-6l1.6-2.8l-4.8-5.6
		l-1.2-5.6l1.6-1.6l7.6-0.4l6.8-3.6l3.2-0.4l-2.8-0.8v-0.8l4.8-0.8l0.8-2h3.6l0.8-0.8h2l-0.8,0.8l2,1.2l-1.6,0.8l1.6,1.2l6.8-3.2
		l6-0.8l8.8-2.8l2.4,0.8l0.4-0.8l6.8-0.8l10.4,3.6h4.4l6.4,1.2l1.6,1.2l5.2,1.2l3.6,3.6v2l3.2-1.2l5.6,3.2l-2.8,0.4l-1.2,1.2
		l-3.2-2.4v2l10,9.2l4,8.8l-0.8-6.4l2,4l0.4,3.6l-1.2,0.4v1.2l1.2,0.8l0.4,3.6h-0.8l1.2,7.6l-1.6,20.4l-1.6,5.6l0.4,2l-1.2,1.2
		l-1.2,8.4l-4,15.2l-2.4,4.8l-0.8-0.8l2-8l-0.4-1.2H667l-0.4,2.8l-4.4,9.6l-16,26l-6.8,6.8l1.6,0.8l2.4-3.2l1.6,1.6l-4.4,4L637,996
		v1.2l0.8,0.4l-3.6,3.2l-0.4-1.2l-4,3.2h-2.4l-10,6v-1.6l-2.8-0.8l2-2v-1.2h-2.4l-2,24.4l-0.8,1.2l-0.4,10l-1.6,0.4v22.4l-1.6,6.4
		l0.4,4.4l-2.4,0.4l-1.2,1.6v42.8l-2,5.2l-2.4,13.2l-2.4-0.8l-2.8,2.8l-0.8-2.8L592.2,1132.4z M571,888.4v0.8h-1.2L571,888.4z
		 M596.2,1134.4h0.4l-0.4-0.4V1134.4z M601.8,855.2l0.4,0.8l-3.2,0.4v-1.2H601.8z M605.8,1099.2l0.8-2l1.6,18l-0.8,0.8v3.2l1.2,2
		l-1.6,2h-0.8L605.8,1099.2z M606.6,1074.4h1.2l-0.4,12h-0.8l-0.4-6.8L606.6,1074.4z M606.2,1091.2l0.4-1.2v5.6l-0.4-0.4V1091.2z
		 M606.6,1125.6h1.2l1.2,2.8h-1.2L606.6,1125.6z M614.2,979.2h1.2l11.2-11.2l8.8-15.2l6-17.6l1.6-10.4l1.6-3.6l1.2-6.8l0.4-13.2
		l-2.4-2.4l-0.4-1.6h1.6v-0.8l-2.4-1.6L637,888l-4-8.8h-8.8l-8.4,1.6l-1.2,8.8l0.4,4.8l-0.8,8l-0.8,28.8l0.8,14.4l-0.8,2.8l1.2,22
		l-0.4,2.8V979.2z M627,1004.4l0.4,0.8l-2,1.2v-0.4L627,1004.4z M627.4,943.6v0.8l-0.4-0.8H627.4z M631,932l-1.2-1.2l2.4-1.6v1.6
		h2.4l1.6,2l1.6-0.8v2.8l-4.4-2L631,932z M634.2,919.6l0.4,2.8l-1.2,0.8l-0.4-0.8L634.2,919.6z M638.2,904l-1.2,8l-1.2,1.2v-1.6
		L638.2,904z M637.8,902.4h1.6v1.2h-1.6V902.4z M639,925.6h-0.8l0.8-0.8V925.6z M639.4,994.8l0.4-0.4H639L639.4,994.8z M643.8,902
		v0.4l-0.4-0.4H643.8z M653,981.2h1.6v2.4l-8,7.6H645L653,981.2z M652.2,860.4v-1.2l-5.6-2l-0.4,0.8l4.4,2.4H652.2z M657,861.2h1.2
		l-4-2v0.8L657,861.2z M661,866.4l-0.8-1.6l-5.2-3.2l-0.4,0.8L661,866.4z M656.6,978.8l-2,1.6l0.4-1.6H656.6z M656.6,978.8l0.4-0.4
		v0.4H656.6z M657,978.4l1.6-3.6l1.6,0.4L657,978.4z M663,970l-2.4,3.2h-0.8l1.6-3.6L663,970z M666.2,958.4l0.8,3.6l-1.6,0.4
		l-0.8,4.8H663V966L666.2,958.4z M669,969.6h-0.8v-0.8L669,969.6z M669.8,971.6v0.4l-0.4-0.4H669.8z M669.8,870.8l2-1.6v2.8l1.6,0.8
		l2.8,3.6v1.6h-0.8L669.8,870.8z"/>
	<path id="XMLID_104_" d="M703,988.4l1.6-2.8l1.6-9.6l-0.8-2.4l0.8-1.2l-0.8-3.6l0.8-0.4v-1.2h0.8l0.8,0.8l-0.8,1.6l0.8,4.8
		l-0.8,12.8l-0.8,0.4l0.8,1.2l-0.8,0.8h-1.6l-0.4-2L703,988.4z M703.8,991.2v0.8l-0.4-0.8H703.8z M705,1023.6l0.8,10l-0.8,0.4
		l-1.2-10.4H705z M704.6,1083.6l-0.8-6.8l1.6,6.8H704.6z M705,1018l-0.8-5.6L705,996l1.2,1.2l0.4,29.6l-2-6L705,1018z M749.8,1136.8
		l9.6-0.4l-2-1.2H743l-6-2.4l-2.4-2l-8.4-3.6l-8.4-11.6l-5.2-12.4l-0.8-2.8v-1.6l-2-4l0.8-0.4l-1.2-1.6v-4l-2-1.2l1.2-3.2l-1.6-9.2
		l-1.6-27.6l0.8-1.6l-1.6-3.2l0.8-7.2l1.2,0.4l0.8,12.4l-0.8,4.4l2,9.2v13.6l1.6,5.6l2.4,13.2l0.8-2.4l-1.6-19.2l-0.8-1.6l-2.4-37.2
		l1.6-4v-3.2l-0.8-0.8l0.8-2.8l-0.8-2l-0.8-5.6l0.8-12.4l-0.8-7.6l2-6.4l-0.4-16.8l2-5.6l-0.8-5.2l0.8-7.2l-0.8-8l0.8-4.4l-1.6-1.6
		l-2.4,14.8h-0.8l-1.2-1.6l-1.2,1.2l-0.4-2l2.4-1.6l-1.6-0.8l1.6-2l0.8-2.8l-0.4-2.4l0.8-0.8l2.4-14l0.4-4.4l1.2-6l0.8-9.2l1.6-0.8
		v-3.6l-2.4-1.2l2.4-9.2v-2.4l0.8-0.4v-1.6l2.4-2l0.8-6.8l-1.2,1.2v-1.2l1.2-1.6l1.6-0.4l5.2-9.6l-0.4-2.4l5.6-3.2l-0.4-0.8l4.8,2.8
		l1.2-3.2h4.8l3.6-4l-0.4-1.2h2l2.8-4l3.6-0.4l-3.2,3.6l-1.2,3.6l7.6-1.6l-1.6,2.4l-0.8,3.2h1.2l2.8-2.4l1.2,2.4l5.6-2l2.8-2.4
		l6.4-0.4l0.8-0.8l1.2,0.8l2,0.8l-2,1.6l7.2-1.2l5.2,0.4l2-2.4l-5.6-2h-2.8l-1.2-0.8h5.6l-0.4-2l12.8,5.2l1.6,2.4l-6-2.8h-1.6l6,2.8
		l5.6,6l4.8,2.8l4,0.4l6,4.8l-0.8,1.2l4.4,3.2l1.6-0.4l-0.8,2l0.8,2L823,884l-4.8-4.4h-2.8l16.8,21.2V898l-2.8-4.8l-4.8-4.8l1.6-3.2
		h2l1.2,2.8l2.4,2l6,16.4l2,1.6l-1.6,0.8L843,930l3.2,24.4l-0.8,2.4l0.8,12.8l-1.2,3.2l1.2,2l0.4,5.6l-1.2,5.6l-0.8,18l-2.4,8
		l0.8,2.8l-1.6,3.2v7.2l-2.8,10l-1.2,8l-1.2,1.6l-0.4,6.8l-1.2,3.2l-3.2,12.8l-13.6,31.6l-7.6,12.4l0.4,2l3.6-2.8l-16,16l-8.8,5.6
		l-12-0.4l-14.4,4h1.6l-3.2,1.2v-0.4l-7.2,1.2L749.8,1136.8z M708.6,958l-2.4,3.6v-3.2L708.6,958z M707,961.6l0.8,0.8l-1.6,0.4v-1.2
		H707z M718.6,1112.4l0.8-0.4v-3.2l-5.6-14.4l-2,1.2l5.2,14.8L718.6,1112.4z M713,924.8l1.2-1.2l0.4-0.8l-2-1.2L713,924.8z
		 M715.4,920.8l1.6-4l0.4-8l2.4-4.4l-0.8-2h-2l-2.4,10L715.4,920.8z M731.4,1113.2l1.2-0.4l-0.4-1.6l-2.4-2.8v-1.6l-4-8l-1.2,0.4
		l-1.2-4.4l2.8-0.4l-3.6-3.2l-3.6-19.6l1.2-1.6l-2-4.8l-0.4-3.2l-1.6-1.6l-1.6,0.4l2,22.8l1.2,7.6l4,8.8l6.4,12L731.4,1113.2z
		 M718.2,860.8h4.4l-4.8,5.6l0.4-2.4V860.8z M717.8,1120.8l0.8-0.8l0.8,0.8H717.8z M724.6,867.6L723,868l1.2-4L724.6,867.6z
		 M725.4,862.4v-2l0.4,1.6L725.4,862.4z M726.2,863.2l-0.4-1.2l2.8-3.6l4.8-2.4l6-0.4l4,0.8h-7.6l3.2,1.2l-3.2,2L735,860l-0.4-1.2
		h-2.8L726.2,863.2z M730.2,1127.6l1.2-0.8h-1.2V1127.6z M760.2,1107.6h6.8l6.4-4l2.4-3.2l0.8-2.4l2-0.8l0.8-4.4l2-0.8l1.6-2.4
		l1.2,2l1.6-0.4l3.6-3.6l5.2-14.8l2.8-4.8v-4.4l2-3.6l0.8-4.8l2.4-4v-6.4l2.4,0.8l-0.8-8l3.2-16.8v-4.8l1.2-6.4v-4l1.6-1.2l-0.8-8.4
		l0.4-16l0.4-0.8v-2.4l1.2-4l0.4-8.8l-1.2-1.2l0.4-2l-0.8-0.8l-0.8-6.8l1.2-1.2l-2-13.2l-0.8-8.8l-0.8-1.6l-0.8-6l-2-2l1.2-1.2
		L805,916l-1.2-1.2l1.2-1.6l-2-1.6l-0.4-4.4l-1.2,0.8l-2.8-4.4l1.2-1.2l-1.6-4l-3.6-1.2l-1.2-3.2l-2.8-4.4l-4.4-4.4l-0.4-1.2l-2.4-2
		l-9.6-0.8l-5.6,3.6l-1.6-0.8l4.4-2.4V880l-3.6-2l-1.2-1.6l-1.6-0.8l-3.6,2.8l-0.8-2.4l-2.8-2.8l-5.2,4.8l-1.6,9.2L749,890l-0.8,8.4
		l-1.2,2.4l-0.4,6.8l-0.8,0.8v5.2l-1.2,2.8l0.8,5.6l-1.6,4l-1.6,12.8l-0.4,7.2l-1.6,10.8l-0.4,14l-0.8,2l-0.4,8.8l0.4,4l-0.4,12.8
		l-0.8,2.4l0.8,11.2l-0.8,2l0.4,7.2l-0.8,0.4l0.8,6l0.8,2l-0.8,3.6l0.8,7.6l-2,1.2l1.6,0.8l-0.4,3.6l0.8,9.2l0.8,1.2l-0.8,9.2l0.8,8
		l2.4,2l-0.4,1.2v6l2,2.4l0.8,4.4l5.2,8.8l7.6,8L760.2,1107.6z M749,946.4l2-0.4l-2.8,6.4v-2.8L749,946.4z M750.2,1094.4l3.6,3.2
		l-3.2-1.6L750.2,1094.4z M756.2,1100l2,0.4l-2.8,1.2l-0.8-1.2L756.2,1100z M758.2,856h-0.8l0.8-1.6V856z M761,850.8v1.2l-2.8,0.4
		L761,850.8z M764.6,856.4l5.2-5.2l2.4,0.8l4.4-0.8l2.4,0.4l-2.4,0.4l-1.6,2.4l-3.2,0.4l-1.6-1.6l-4.4,3.2l-5.2,2.4l2.8-2.4H764.6z
		 M761.8,880.8v0.8h-1.2L761.8,880.8z M765,868.4l0.8,0.4v-2h3.6l2-4.4l-4.4,0.4l-0.8,0.8h-2L765,868.4z M768.6,876.8l4.4-0.4
		l-0.4-1.2l-2.4,0.4L768.6,876.8z M780.2,876v-1.2l-2-2.8l-2.8,0.8l1.2,2h0.8L780.2,876z M785.8,874.8l-2-2.4l-4,0.8L785.8,874.8z
		 M812.6,1021.6l2-1.6l0.8-4l1.6-1.6l-0.8-4.4l0.8-6l1.2-4.4l-0.8-9.6l0.8-1.6V984l0.8-1.2l-1.6-31.6l1.6,4l0.8,0.8v5.2l-0.4,2
		l0.8,10l2,1.6l0.4,4.8l-2,4.4l-0.8,13.2l2.8,5.2h2.8l-0.4-4.8l0.4-11.2l1.6-4l-0.4-3.2l1.2-2.4l-1.2-7.6l-1.2-4.8l0.8-2l-0.4-6.4
		l0.8-3.6l-2.4-4.8l-1.6-16.8l-4.4-19.2l-4.8-1.6l1.6-0.8l2.8-0.4l3.2,2.8l-1.2,1.2l0.4,3.2l2.8,8.4l2-2l-3.6-12.8l-1.2-2.4
		l-12-12.4l-1.6-2.4l-2.4,0.4l-3.6-5.2l-4.8-2.8h-1.2v0.8l1.6,4l-7.6-8.8l-3.2,0.4l5.6,4v2.4l4,3.2l6.4,8l1.2,4.4l4.8,10.4l0.8,7.2
		l1.2,2.8l2.4,12.4l-0.8,4l2.4,6.8L815,964l-0.4,16l-0.8,2l0.8,7.2l-0.8,2.4l0.4,4l-0.4,4l-1.6,2.8l1.2,0.8l-0.8,1.6l0.4,5.6
		l-0.8,2.8l0.8,3.2l-0.8,2L812.6,1021.6z M793.8,879.2l0.4-2.4l-8-1.6v0.8L793.8,879.2z M790.6,857.6h1.2l-1.2-1.2H789L790.6,857.6z
		 M800.6,882.4v-1.2l-2.4-1.2l-2.4-2l-0.8,2L800.6,882.4z M797.8,890l2.4,3.6l-0.4,0.8l-2-2.8V890z M802.2,862.8v0.8l-0.8-0.8H802.2
		z M801.4,894.4l0.8,1.6l-0.8-0.8V894.4z M802.6,864l2.4-0.4l-1.6,1.6L802.6,864z M807.4,885.6l-0.4-1.2l-4-1.2v0.8L807.4,885.6z
		 M805.8,888.8h4l-1.6-1.6L805.8,888.8z M807.4,906.8v-1.6l2.8,2.8v1.2L809,908L807.4,906.8z M809.4,912.4v0.8l-1.6-0.8H809.4z
		 M811.8,892.4v-2l-1.6-1.2l-0.8,1.2h-0.8v2H811.8z M811,918.4v-2l1.6,1.6l2,6l0.8,4l-0.4-0.4L811,918.4z M812.2,905.2v2.4l-0.4-1.6
		L812.2,905.2z M815,879.2l-0.8-2.8l-1.6,0.4L815,879.2z M815.4,903.6v0.4h-1.2L815.4,903.6z M820.2,1104l-4,4h-0.8l3.2-4H820.2z
		 M817.4,919.2l-1.2,0.4l-0.4-0.8L817.4,919.2z M818.2,938.8v0.8l-0.8,0.4v-1.2H818.2z M821.4,861.6l0.8,0.8l-1.6,0.4V862
		L821.4,861.6z M825.4,937.6l-1.6-4.4l0.8,3.6L825.4,937.6z M825,866l2.4,3.6l-2-1.6L825,866z M833.4,875.2v2l-0.8-1.6L833.4,875.2z
		 M837,934h0.8l-3.2-20.4h-1.2l0.8,6.8l0.8,2l0.8,10L837,934z M845.8,924.4l-0.8,2v-2H845.8z"/>
	<path id="XMLID_161_" d="M871.8,1101.2l0.8,0.4l-2-0.4H871.8z M873,858.4l1.2,0.8l-2.4-0.8H873z M899.8,1132l2-2.4l-0.4-0.8
		l-3.2,2.4l-0.4-1.6l4-2v-2.8H901v1.2h-3.2l-2.4-0.8l-2,1.2l1.2,2H893l-1.6-1.2H889l-2,2.4l0.4,2.4h-1.6l-0.8-0.8l1.2-0.4l-0.8-0.8
		l1.2-2.4l-4.4-0.4l-1.6-1.2l-1.2,1.2l-1.6-0.8v-1.2l1.6-1.2l0.8-2.4h6l-0.8-1.2v-2.4h-2.8l-3.2,1.6v-1.6h-2l-3.2,2.4l1.6-5.6
		l4.4-4.8l0.8-2.4l-1.2-0.8l-1.2-6.4l0.8-0.4l0.4,2l1.2-0.8l-0.8-15.6l-1.2-0.8l2-2.4l-0.4-2l-1.2-0.4l1.6-2l0.4-8l-0.8-1.6l2-3.2
		l-1.2-1.2l0.8-0.4l1.6-2l-0.4-3.6l0.8-2.4h1.2l0.4,4.4l-0.8,6.8l-0.8,1.6l0.4,19.6l-1.2,2.4l1.6,3.2h2l-1.2-7.2l-0.4-10l0.8-1.6
		l0.4-8l1.2-5.2v-18l0.8-2l-1.6-1.6h-2v-2h1.6l2-3.2v-8.4l2-2.8l-1.2-2.4l-0.8-7.6h-0.8v4.8h-1.6l-0.4-8l-0.4,0.8l-1.2-1.2l0.8-4
		l-0.4-5.2l-0.8-0.8v-2.4l1.6-3.2l-0.8-2.8l1.2-1.2V988l-2.4,0.8l2.8-6.4l-0.8-1.6l-0.4-4.4l0.8-1.2l0.8-8.4h-2v-1.2l2.4-1.2
		l-0.4-4.4l-1.2-3.2l2-2.8l-1.2-0.4l0.8-2l-0.4-6L885,944l-0.8,2.4l0.4-5.2l0.8,2.4l2-2.8l-2-2v-2.4l1.6-1.2l-0.8-1.2l-0.4-6.8h0.8
		l-1.6-2l1.2-2.8l-0.4-8.8l-1.6-2l1.6-2l-1.2-2l0.8-3.2l-2-1.6l2-1.2l-0.4-4l-0.8-1.6l0.8-2.4l-1.2-7.2L881,884l0.8-2l-2-1.6
		l1.6-3.2l-0.4-7.6l2.4-4.8h1.6v-1.6l0.4-3.2h2.4l0.8-2.8l1.2,2.8l-0.8,2.4h2l0.4-2.4l2.8,1.2l6.4-1.2l3.2-1.6l3.6-3.2h1.6l1.6,4
		l2.8,0.8l3.6-1.2l-2-3.6l4,2.4l-1.2,1.2l1.2,1.2h27.2l16,1.6l-0.8,1.2l-4.4,0.4l1.2,0.8v0.8h-3.6l3.6,1.6h8.8l-0.4-1.2h-3.2
		l0.8-1.6l8.8,2l2,0.8l0.8-1.6l2,2.4l8,3.6l10,7.6l7.2,10.8l5.2,11.6l2,9.6l1.2,3.2l1.6,12l-0.8,0.8l-1.2,12l-3.6,22.4h2.4l1.2,1.2
		l-3.6,0.4l-0.8,0.8l2.4,1.6l-2.4,1.6v0.8l-0.4,3.2l-1.2,1.2v1.2l3.2,0.8l-1.2,0.4l-3.2,2.4l-3.2,13.2v2.4l-1.2,1.6l0.4,1.6L999,996
		l-3.6,10.8l-1.6,1.6l0.4,4.4l-1.6,1.6v2.4l-4.4,11.6l-1.2,0.8l-5.6,14.4l-2.4,1.6l-0.4,2.8l-4,5.6v2l-1.2,3.6l-2.4,0.8v2.4h-2v2.8
		l-2.4,0.8l0.4,3.2h-2.8l-1.2,4.8l-1.2,0.8l-0.4,1.6l-1.6,0.8v1.6l-1.6,2.4l-3.6,2.8l-2.4,5.2l-1.6,1.2l0.4,0.8l-6.4,6.8l-12.8,11.2
		l-2,0.8l-9.6,9.2l-6,6.8l-7.2,5.2l-3.2,3.6l-2.4-2.4L899.8,1132z M876.6,860l1.6,0.8L875,860H876.6z M880.2,884l0.4,1.6l-3.2,1.2
		l1.2-2.8H880.2z M879.8,1056l2-0.8v-3.2l3.6-0.8v2l-2.4-0.8l-0.8,5.6l-1.2-1.2L879.8,1056z M883.8,1124.8l-1.6-1.6h-1.6l0.4,0.8
		L883.8,1124.8z M881.8,1045.2l1.2-1.6h0.8v1.6l-1.2,2.8h-0.8V1045.2z M882.2,872.8h1.6v-1.6h-1.6V872.8z M882.2,1038.8h1.2v2.4
		l-0.8,1.2l-0.4-0.4V1038.8z M884.2,1026.4l-0.4,4.4H883l0.4-4.4H884.2z M883.8,1033.2H883l0.8-0.4V1033.2z M884.2,1097.6l0.8-0.8
		l-0.8-1.2H883v0.8L884.2,1097.6z M884.2,1020.8l0.8,3.2h-0.8l-0.8-1.6L884.2,1020.8z M884.6,1123.2l0.8-0.4h-0.8V1123.2z
		 M885.8,1008.4h1.6v-13.2l-2,3.6L885.8,1008.4z M886.2,1023.6l1.2-1.2l-0.8,9.6l-1.2,1.2v-2.8L886.2,1023.6z M886.6,1020.8v0.8
		l-0.4-0.4L886.6,1020.8z M887.4,864.8v-2l-0.8,1.2L887.4,864.8z M887.4,1120.8l3.6-0.4l-2.4-2.4l-1.2,2.4V1120.8z M893,1046.8h1.6
		l0.8-1.6l-0.4-4.8l0.8-0.8l0.4-11.6l-2-4.4l0.8-2.8h-1.6v1.6l-1.6,3.6l0.4,3.6l-0.8,1.2v12.4L893,1046.8z M892.6,1058h0.8l1.6-2.8
		l-0.4-7.2h-2.4l0.4,5.2l-0.8,1.2L892.6,1058z M893.4,1067.2l0.8-0.4l-2-2l0.4,2L893.4,1067.2z M899,1133.2l-1.2,2l-1.2-1.6
		L899,1133.2z M920.2,1094.4l2.8-0.8l2-2.4v-0.8l5.2-4l1.2-2.8l1.6-1.2l1.6-2.8l0.4-1.6l5.2-5.2h3.2l-2.4-2.4l2.4-1.2v2.4h2.4v-2
		l2-4l3.2-1.6v-1.6l1.6-3.2l5.2-4.8l1.6-3.2h-1.2l3.6-8.4l2.4-1.2v-2.8l11.6-24.4l6.8-24l1.2-6.8l1.6-2.4l-0.4-2l2.4-6.4L987,970
		l1.2-1.2l0.8-11.2l1.2-0.8l-0.4-1.6l0.4-5.6l0.8-0.8l-1.6-2.8l1.2-1.2l-1.6-3.6l-0.8,2.4l-6.8,4v5.2h2.4v-1.6l0.8-0.8l0.8,0.8v2.4
		l-1.2,3.2h-2l0.8-2.8h-2l-1.6,5.2v2.8l-1.2,2.4l-1.6,5.6l-0.8-5.2l-1.2,1.6h-0.8l0.8-4.4h0.8l1.2,2h0.8v-4.4l1.2-2l1.6-10.4
		l1.2-1.6h-1.2l-2,4.8h-1.6l1.6-1.6l-0.4-3.6l3.6-1.2v-4.4l-2.8,4h-0.8l1.6-4l-0.4-2l1.6-2.4L979,930h1.6l0.4-1.2l-0.4-3.2l-3.6-2.4
		l1.2-3.2l-0.4-4.8l-3.2-1.6l-0.4-6.8l-2.8-7.2l-2.4-4.4l-10.8-10.8h-6.4l-1.6-2h-12.4l-3.6,1.6l-3.2-0.8h-4.8L925,884l-4.4,1.6
		l-1.6,1.6v2.4h2.4l10-2.8h3.6l-6,1.2l-2.8,1.6h-1.6l-5.2,2.8l0.8,18.8l-1.6,1.6l0.4,5.6l0.8-1.6h0.8v2.4H919l-0.8,2.8l0.8,1.2h1.2
		l0.4,1.6h-2.8l-1.2,4h1.2v-1.6h0.8l0.4,6.4h1.6l-2.4,1.6L919,948l1.6,0.8l-1.6,0.8l-1.2,3.2h1.2l0.8,12l-1.6,1.6l1.2,2.4l-1.2,1.6
		l-0.4,6.8l0.4,5.2l-0.4,9.2l-0.8,1.2l0.4,3.2l-1.2,0.8l1.2,2.8l-0.8,4l0.4,14l-2.4,5.6h0.8l0.4,6.4l0.8,1.2l-1.2,1.2v7.6l-0.8,0.8
		l0.4,4.8h-1.2l-2,2.8l1.2,2l1.2-2v2l-1.6,0.8l-0.8,4.4l2,1.6v1.2l-2-1.2l-0.8,1.2l4,1.6l-1.2,2.4l-1.6,0.8l1.2,2l-1.6,1.6l2.8,3.2
		l-1.6,1.2l-0.8,2h1.6l-2,2l2,8.4l-1.2,2.8l0.8,1.2l2-2l-0.8-1.2l0.4-3.6v-4l0.8-1.2l0.4-8.4l1.6,3.2l-1.2,14h2l0.8,0.8l-3.2,2v2.8
		h1.6l0.8-1.2l2,0.4l2.8-0.4v0.8l-5.2,4.4L920.2,1094.4z M913.8,1090.8h0.8l-1.2-1.2L913.8,1090.8z M914.2,1052l0.8,1.2l-1.2,1.2
		v-1.2L914.2,1052z M915.8,890.4h1.6l-0.8-2.4l-0.8,1.6V890.4z M916.6,1061.2l0.4,0.4l-1.2-0.4H916.6z M917.4,904.4l0.8-0.4v-1.2
		l-0.8,1.2V904.4z M918.6,909.6v-0.8h-0.8L918.6,909.6z M920.2,946v0.4l-0.8-0.4H920.2z M921,975.2l-0.8,0.8v-1.2L921,975.2z
		 M920.6,1096.8h0.8l1.2-1.6h-1.2l-0.8,1.2V1096.8z M923.4,1086.4H921l2.4-1.6V1086.4z M925.8,1076.4l-2.8,3.2l-1.6,0.4l3.6-3.6
		H925.8z M925,1080l0.4-2h1.2l1.6-1.6v-1.2l2.8-3.2l1.2-2.4l2.8-1.6l0.8,1.2l-1.6,1.2l-2,2.4l2.4-0.8v0.8l-2,2.4h-2l-3.6,6l-2.8,2.8
		l-0.4-2.8L925,1080z M923.8,1098h4.8l0.8-1.6l-4.4,0.4L923.8,1098z M936.2,1110.4l1.2,1.6l-5.6,2l-4.8,6h-1.6v-1.6L936.2,1110.4z
		 M927.8,1082.4l0.8,0.8l-0.4,0.8l-1.2-0.8L927.8,1082.4z M929.4,1070.8v2h-1.6v-2H929.4z M932.2,1093.2l0.8-4.8h-2l-2.8,3.6h2.8
		L932.2,1093.2z M933,1064.8l1.2,0.8l-2,1.6l-1.2,2v-1.2L933,1064.8z M933.4,884.4l-0.8,0.4l-1.2-0.4H933.4z M939,1088.4h1.2
		l2.4-2.8l4.4-4l2.4-5.6l-0.8-1.2l-3.2,4.8l-1.6,0.4l-0.8,3.6l-2.4-2.4l0.4-1.2h2l0.8-2.4l-2-0.8v1.2l-1.2,0.8l-2,1.2l0.8,2
		l-1.6,0.4l-2.8,3.2h-1.6l-0.8,0.8l0.4,0.8h2l1.6-1.6h1.2l1.2-3.2l2.4,2l-0.4,1.2L939,1088.4z M935.4,1064v-1.6h3.2v-1.2l-2.4-0.8
		l1.6-1.6h2l-0.4-2l2-2l1.6,1.2l-1.2,2l1.6,0.8l-3.2,0.4l-1.2,3.2l-3.6,5.2l-0.4-2.4L935.4,1064z M947.8,1098.8l2-2h2l-1.6,0.8
		l0.4,1.2l-1.6,2.8l-3.6,1.2l-6.4,6.8h-2.4l10-10.4L947.8,1098.8z M938.2,1049.6v1.2l-0.4-1.2H938.2z M938.6,1077.6l2.4-1.2l0.4-2.4
		l-2.8,1.2V1077.6z M944.2,1052h-1.6l1.2-1.6l4.4-8.8v-1.2l3.6-7.6l2.4-2l0.8-5.2l3.6-7.2l1.2-4.8l1.6-1.6l1.2,1.2l-1.2,4.4
		l-2.4,4.8l-4,10.4l-5.2,8.4l-0.4,3.2v3.6l-3.6,4l-0.8,2.4h-2.4L944.2,1052z M944.2,1074h2.4l1.2-2l-1.6-0.4l-0.4,1.2L944.2,1074z
		 M945,1067.2l1.2-3.6v-2l6.8-8.4l-0.4-3.6l0.8,0.8l0.4,3.2l-4.4,8l-1.2,0.8l-1.2,4.4L945,1067.2z M954.2,863.2l-8-1.2l2,1.2H954.2z
		 M948.2,1070.8h0.4l-0.4-0.4V1070.8z M951,1075.2h0.8l1.2-2.4v-2l4-3.6l-2-2l-2.8,4v1.2l-2.8,3.6L951,1075.2z M952.6,1093.2
		l1.6,1.2l-1.6,1.2l-1.2-0.8L952.6,1093.2z M954.2,1044.4l1.2,0.8l1.2-2.4l-1.2-0.8h2.4l0.4,1.6l-2.8,3.2l1.6,7.2l-2.8-6V1044.4z
		 M955.8,1107.2l0.8,1.2l-2,0.8L955.8,1107.2z M956.2,1065.2l0.4-1.2l-1.6-0.4v0.4L956.2,1065.2z M955,1090.8l2.4-2l5.6-8.4l0.8,0.8
		l0.4,2l-4,4.8l-0.4,2l-2.4,0.8l0.4,0.8l-1.2,1.6l-1.6-0.4V1090.8z M957.4,1038h1.6l0.8-1.6l0.8,1.6l-2,2l-1.2-1.2V1038z
		 M957.4,1062.4h1.2l1.2-3.2l-2.4,2.4V1062.4z M961.4,1032.8v-3.2h2.4v1.2l-1.2,1.2v1.2l-1.2,2h-0.8L961.4,1032.8z M960.6,1055.6
		l2.8-2l-2-0.8l-0.8,1.6V1055.6z M961.4,1029.6l3.6-8l1.6,0.8l-2,1.6v4.4L961.4,1029.6z M964.6,1008.4l-2,1.6v-1.6H964.6z
		 M964.6,861.6v0.8l-1.2,0.8v-1.6H964.6z M963.8,1003.2l2,0.4v2h-2.4v-2L963.8,1003.2z M964.6,1052l-0.4-1.6h-0.8L964.6,1052z
		 M963.8,1002l2-4.4l1.6,2l-1.6,2.8l-0.4-0.4H963.8z M965.4,1070.8v0.8h-0.8v-0.8H965.4z M971.4,863.2l3.6,0.8l-2.8,0.8l-7.2-2
		L971.4,863.2z M969.4,1013.6l-0.4-3.2h1.2l-0.8,6l-2.4,2.8l-0.4,1.6h-0.8l-0.4-2.4L969.4,1013.6z M967.4,1074.4l1.6,0.8l-1.6,2
		h-1.2l-0.4-0.8L967.4,1074.4z M966.6,1042.8h1.2l-0.4-1.6l-1.2,1.2L966.6,1042.8z M968.6,988.8v1.6h-1.2l0.8-1.6H968.6z M969,995.2
		v1.2h-1.2l0.8-1.2H969z M970.2,982.4l0.4,2.4l2.4-4.8h1.6l-2,5.6h-2.4l-1.6,0.8v-1.6L970.2,982.4z M970.6,991.6l-0.8,1.2H969V992
		L970.6,991.6z M975.8,871.2h2l-2.8-2l-0.4-1.2l-5.2-1.6v1.2l1.2,0.4l2.4,2.4L975.8,871.2z M970.6,1008.4h-1.2l2-0.8L970.6,1008.4z
		 M971.4,1068.4l0.8,0.8l-2.8,2.8v-1.6L971.4,1068.4z M970.6,915.2l-0.4,0.8l-0.4-1.6L970.6,915.2z M970.6,1005.6l-0.4-3.2l1.6-0.4
		l0.8-1.2h0.8v1.2l-1.2,0.8l-0.4,3.2l-0.4-0.4H970.6z M974.6,978.4l-4,0.4l2.4-2.8L974.6,978.4z M971,1030.8h1.6l-0.8-0.4
		L971,1030.8z M973.4,969.2l0.4,3.2l-1.2,1.2L973.4,969.2z M973,994l1.6-0.8l3.6-13.2l1.2-1.6l0.8,0.4l-1.2,6l-2.8,7.2v1.6l-1.6,2
		l1.2,2l-2.4,0.8l0.4-4L973,994z M976.2,972.4l-0.8,0.4l-0.4-1.2L976.2,972.4z M977,959.2l-0.8,0.8v-0.8H977z M978.2,952v2h-1.6
		l0.8-2H978.2z M980.2,976v0.4l-1.6-0.4H980.2z M980.6,964.8l1.6-0.4l2-2.4h1.6l-4,6l-1.6,6.8l-0.8-0.8L980.6,964.8z M983.8,874v-2
		h-1.6L983.8,874z M983,867.2l3.2,1.6h-2.8L983,867.2z M983.4,945.6l1.6-2l-1.6-0.4V945.6z M985,959.2l0.8,0.8h-1.6v-0.8H985z
		 M985.8,866.4v0.8H985l0.4-0.8H985.8z M1003,894.4l-2.4-7.2l-2.4-2.4l-4-5.2l-3.2-2.4l-2-0.8l-0.8,1.2l4.8,4l6,8.8L1003,894.4z
		 M1003.4,995.2h-0.8l0.4-1.2L1003.4,995.2z M1007.4,909.6h0.8l-0.8-0.8V909.6z M1013.8,928.8l-0.8,1.2l-0.8-0.8L1013.8,928.8z
		 M1013,943.2v2.4h-0.8v-2L1013,943.2z M1015.8,916.8l-1.2,0.8l0.4-0.8H1015.8z"/>
	<path id="XMLID_266_" d="M1067.8,892.4l8.8-12.8l11.2-14.4l4-1.2v-2l-1.2-2l4,1.2l10.8-3.2l7.6,1.6h4.8l7.6-2.4l2.8,0.4l6.8,7.6
		l1.2,3.6l2,2l2.4,0.4v1.2l-1.6,1.6l-0.4,1.6l-2,2.4l-1.2,5.6l7.6-0.8l-7.2,1.6l-6.4,6.4l-12,6.4l-19.2,34.4l0.4-9.2h-3.6l-2.4,3.6
		l-2,4.8l-3.2,4l-2.4,9.6l-2.8,5.6l-9.6,30.8v3.2l-1.6,3.2v6.8l-1.2,2.4l-1.2,5.6v5.6l-0.8,0.8v3.2l-1.2-2.8l-1.6,4.4v37.6l2.8,16
		l2,5.2l2.8,3.6l1.2,3.2l6,8l10,7.6l6,3.2h3.6l7.6-3.6l5.6-0.8l4.8-2.4l1.2,2.4l4.4-2.4l2.8,1.2l5.6-0.8l-3.2,3.2l0.8,1.2l2.8-1.2
		h3.2l4.8-1.2l-1.2,2v3.6l-2.8,5.2l-2,1.2l2.8,1.2l-8,7.2v2.8l-2.4,1.2h-2.4l-0.4,1.2l-7.6,4.8l-4,1.6l-3.6,0.4l-2.4,1.2h-10.4
		l-9.2-1.2l-26.8-9.6v-1.2l-3.2-0.8l-6-4.4l-4.4-5.6l-0.4-1.6l-2-0.8l-7.2-14.4l-2.4-2v-1.6l1.2-0.8l-1.2-2.4l-2-9.2l-1.6-1.6
		l1.2-1.2l-1.2-4l-0.4-7.2l-0.8-0.4v-3.2l-1.6-4.8l0.8-0.4l-0.8-30.4l4.8-28.8V986l3.2-10.8V972l1.6-3.2l0.8-5.6l2-4.4l2-8l0.8-0.8
		l0.4-2.4l6.8-18.8l0.4-3.2l14.4-27.2L1067.8,892.4z M1032.6,1080h-1.2v-2L1032.6,1080z M1067,1020.4l-0.8,1.2v-0.8L1067,1020.4z
		 M1067.8,1015.6l-0.8,1.6v-1.6H1067.8z M1067.8,1053.2v2.4l-0.8-1.6L1067.8,1053.2z M1067.4,1047.2l0.8,3.6l-0.8-0.8V1047.2z
		 M1071.8,1056.4v7.2l-1.2-4.4L1071.8,1056.4z M1071.8,1026.4v10.4l-0.8,6.4v-12L1071.8,1026.4z M1071.8,1054.8l-0.8,0.8v-2
		L1071.8,1054.8z M1072.6,1024.4h-0.8l0.8-2.8V1024.4z M1072.6,1066v0.8h-0.8v-0.8H1072.6z M1073.8,1012l-1.2,7.2v-6L1073.8,1012z
		 M1074.2,1006.8v4l-1.2,0.4L1074.2,1006.8z M1076.6,992.8v2.4l-0.8,3.6v-4L1076.6,992.8z M1078.2,985.6v3.6l-0.8,2.4V988
		L1078.2,985.6z M1080.6,977.6v2.4l-2.4,4.8v-2.4L1080.6,977.6z M1085,962h0.8l-1.2,4.8l-1.6,2.8l-1.6,6.4l-0.8,0.8V974L1085,962z
		 M1087,957.6l2.8-7.6v3.2l-3.6,7.6v-2L1087,957.6z M1097,933.2v1.6l-5.2,12.8h-0.8L1097,933.2z M1109,856h-1.6l1.6-1.2V856z
		 M1138.2,1090.8v0.8h-1.6l0.8-0.8H1138.2z"/>
	<path id="XMLID_288_" d="M1269,1133.2v-4.4l-1.6,0.8l0.4,10l-2.8-0.4l-0.4-2.4l2-1.6l-0.4-2.8l-2-0.8l0.8-1.6l0.4-2.4l-0.8-1.6
		l-0.4-8.8l-2-3.2h0.8l0.4,1.6l-0.8-28.4l-1.2-4.4v7.6h-0.8v-9.2l-1.6-2.8l0.4-10l0.8-2.4l-2.4-3.6h-2l1.6-1.2l-1.6-0.4l-3.6,0.8
		l-1.6,2l-2.4,1.6l-1.6-0.4l-38,8.4l-10.4,4l-4.4,3.6l0.8,30.4l1.6,5.2l-1.2,6.4l-2.8,6.4l-6,2.8l-13.6-0.8l-7.2-4.8l-2.8-3.2
		l-6.8-2.4v-8.8l-1.2-1.6l-0.4-2l4-44l14.4-72.8l3.2-10.4v-4.8l22.8-75.2l8.4-20.4l1.6-6.4l3.6-5.2l1.6-4.8l3.2-3.2l2.8-1.2l1.6-4
		l2.8,0.4l1.6,1.6l0.4,3.6l-2.4-4.4h-1.2l-2,2.4l9.2,6.8l3.2-6l5.2,0.4l5.2,5.6l3.6-1.2l1.6-3.2h1.6l0.8,2l-2.8,1.2l-0.4,2.4l2,4
		l6,20.4l0.8-1.2l-0.4-5.6l2,8l-1.6,2.4l0.8,2l0.4-1.6h0.8l9.6,32.4l2.4,4.4l2.4,12l1.6,3.2l-0.4,2l2,3.6l6.4,28l-0.4,1.2l1.6,6
		l0.4,6l2.4,1.2l0.4,0.8l-2,3.6l1.6,2l1.6,6l-1.2,3.2l1.6,2.4l0.4,11.6l1.2,2v3.2l-1.2-0.8v4.4l0.4-2.4h1.6l0.4,5.2h-2l0.8,12.8
		l2,5.6l1.2-1.2l-3.2-16h1.6l2.8,18l-1.2,2.4h-1.2v1.6l2-0.8l1.2,6.8l-0.4,1.6l-1.2-0.4l2.4,2.4l-0.4,3.2l2,10l2,31.6l-0.8,3.2h-0.8
		l2.8,8l-0.4,8.4l-2-1.6l1.2,11.2l-0.8-2.8l-0.4-5.6l-3.2-0.8l0.4,3.6l-2.4,2l-0.8-2l-2.4-0.4l-2,6.8l-1.2-1.6l-3.2,0.4l-1.2-5.2
		h-1.6v2.4l-2-2.4l-0.8-3.2l-5.2,2l1.6-1.6l-1.6-1.2l-1.6-0.4l0.8,9.2h-0.8l-0.4-1.2L1269,1133.2z M1198.2,1048.4h4.8l6.8-2.4
		l3.6,0.4l4.4-1.6l3.6-0.4l4,1.6l1.2-1.2l3.2,0.4l-0.4-0.8l-0.8-0.4l2.4-1.6l14.8,1.2l1.2-0.8l6.8-0.4l-0.8-7.6l-0.8-4l-4-34.4
		l-8-38l-2.4-2.8l-0.8-4l-2-5.6l-0.4-3.2l-1.2-0.8l-2.4-9.6l-3.2-2.4l-2.8,0.8l-9.6,32.4v3.2l-5.2,16v6l-2.8,8.4l0.4,3.2l-2,3.2
		l-8,42L1198.2,1048.4z M1207.8,1080h-0.8l2.4-1.6L1207.8,1080z M1208.2,1048.8l2.4,0.8l4.4-1.2l0.4-0.8h-1.2l-4.8,0.4
		L1208.2,1048.8z M1237.4,1040.8l3.6-2h2.4l-3.6,2.4l-4.8,1.2l-0.4-1.2L1237.4,1040.8z M1250.2,1037.2l-1.6,1.2h-2l2-1.2H1250.2z
		 M1252.2,866.4l1.2,1.2l-1.2,1.6l-1.6-2L1252.2,866.4z M1252.6,1037.2l-1.2,0.8l0.4-0.8H1252.6z M1252.2,1127.2v0.4l-0.4-0.4
		H1252.2z M1253.8,871.6l2.4,10.8l-4-11.2L1253.8,871.6z M1253.4,1062.8l-1.2,0.8l0.4-0.8H1253.4z M1260.2,892.8l0.4,0.4l-1.6-0.4
		H1260.2z M1259.8,1073.2l1.2,7.2l-0.4-10L1259.8,1073.2z M1261.4,1091.2v3.2h-1.2l0.4-0.8L1261.4,1091.2z M1261,1101.6l0.4-1.6
		l1.2,1.2l-0.8,0.4l0.8,0.8v3.2l-1.2-1.2L1261,1101.6z M1263,1107.6v5.2l-0.8-2L1263,1107.6z M1263.8,1133.2l0.4-1.6l0.4,2.8
		l-1.6-0.4v-0.8H1263.8z M1267.8,921.2h1.6v4l-1.2-1.2L1267.8,921.2z M1277.4,1125.2v-4.8l-1.2-3.6l1.2,1.6l0.4-3.2l-0.8-0.8
		l0.4-2.4l-2.4-1.2l-0.4-2l3.2-3.2l-1.2-2.4v-6.8l-2.4-4.8l-2.8,8.4l-2,0.4l0.8,4.4l2,0.8l-2,2l0.8,2.4l-0.4,2h2.4l-2,2.8l0.4,1.6
		l1.2,0.4l-0.4,4.8l1.2-2.4l0.4-9.6l2.4,15.6H1277.4z M1293.8,1072.4h0.8l-0.4-2.8l-0.8,0.8L1293.8,1072.4z M1297,1092.8l-0.4-2.4
		l-2-0.4L1297,1092.8z M1297.4,1100l-0.4-6.4l-0.4,3.6l-1.6,1.2l2,1.2L1297.4,1100z M1296.6,1088.4l-0.4-1.6h-0.8v0.8L1296.6,1088.4
		z M1297.8,1111.2h0.4l-0.4-0.8V1111.2z"/>
	<path id="XMLID_313_" d="M1351,1143.6l-9.6,1.2h-6.8l6.8-1.6l-1.6-2.8h-6l4-1.2l0.8-1.2l-1.2-0.8l0.8-0.8l-10,4l-2-0.4l8.4-2.8
		l-7.6-5.6v-1.2l10-2.8v-0.8l-2.4,0.8l1.2-1.6h-2l-1.2-2l-2.4-0.8l-2,0.4l1.2-2.8l8,3.6l4-0.4l-3.2-0.8l1.6-1.6l8.4-1.6l2.4-4l6-4
		l2-4.4h-1.2l-7.6,4.8v-0.8l8.8-6.4l2.4-4.4l2.8-2l7.2-13.6l2-9.6l-1.6-3.2v-4.4l-2.8-8.4l-2.4-1.6v-3.2h1.6v1.6l3.2,2.8v-3.2
		l-3.6-6.4l-3.2-4v-3.2l-3.2-2.4l-13.6-18.8h-3.6l-2-3.6l-1.6-0.4l-2-2.4l-0.8-4h-4.8l-2-2l2,0.4v-1.2l-6.4-6l-4.4-0.4l-4.4-4v-1.2
		h2.4v-0.8l-5.2-5.2l-3.2-6.8l-2.4-2l-2.8-8.4l-2.8-6.8v-3.2l-2.4-4v-6.8l-1.6-1.2l-1.2,2.4h-1.2l0.8-3.6h2.4l0.8-2l2-0.4l-2,3.6
		l2.4,1.2l-1.2,2.8h2.4V948l1.2-3.2v-8.4l-2-4.4l7.2-11.6l0.8-3.2l2.8-2l1.6-4.4l3.6,0.4l-5.6,6l-4.8,8.8l-0.4,3.2l-2,4v3.2
		l11.6-17.2l2.4-6l3.6-4.4l5.2-8.4l21.2-23.2l9.6-7.6v-0.8l8.8-8l-3.2-1.2l-2.4,3.6l-16.8,13.6l-1.6,3.2l-5.2,2.8v1.2l-8.4,9.2h-2
		l4.8-6.4h-0.8l-5.6,4.4h-1.2l2.8-2.8V886l2.8-3.2v3.2h2v-2.4h2.8l-2.4-2.8l3.6-0.8l-1.2,3.6l5.6-4.4l8-9.6l-3.6,1.2l-0.8,1.6
		l-4.8,3.2l-2.4-1.6l4-4.8l5.2-2.8l-3.2,2.4l-0.8,3.6l4-3.6l5.6-1.6l3.6-5.2l10.8-6.8l2.8-2.4l0.8,1.2l4.8-1.6h7.2l5.6-2.4l8-0.4
		l7.6-2.8v1.6l-5.2,3.2l-2.8,0.8l-3.6,2.4l-3.2,0.8v2l1.6,0.4l2.8-2.4l5.2-1.6l4-3.6l-1.2,4.4l-8.4,4.8v2l9.6-3.6v1.6l-2,1.6
		l-4.4,1.2l-1.6,1.6h1.6l-7.6,4.8l-20,17.2l-8.8,9.6l-3.2,5.6l-0.8,5.2l-9.2,11.6l-6.4,13.6v3.2l-3.6,6.4l1.6,14.8l3.2,5.2l1.6-0.4
		l-1.2,2.4l2,7.2l7.6,12l20.4,18.4l1.2,2.4l-4.4-4l-8.8-5.6l-5.2-5.2l-1.6,1.2l2,0.8l1.6,4.8l5.6,4l1.6,0.4l2,2.4l-1.2,0.4l1.6,0.8
		v1.6h3.2l-0.8,2.8l2.8,0.4l11.2,12.4l5.6,3.6v0.8l-2.4-0.8l18,28.8l4.8,10.4l1.2,6.8l2-0.8l-2.4-7.2l-0.4-4.8l-4.8-6.8v-3.6h-1.6
		l-6-9.2l2-3.2l0.4,1.6l-0.8,1.2l4.4,7.2l-0.8-4.4l6.8,10.8l5.2,14v4l-3.6,16.4l-6,14.8l-2.4,2l-1.2,4l-2,0.8v2.8l-2,0.4l-0.8,2
		l-2.4,0.8v1.6l-7.6,8.8l-10,6.4l2.4,0.8l7.6-3.2l10.8-7.6l-0.4,2.4l-4,2.4l-6.4,5.2l-6,1.2h-6v1.6h-2l-19.6,11.6l-5.2,1.6l-3.2-0.8
		h1.2L1351,1143.6z M1299.4,940v2.4h0.8l2-2l1.2,0.8l-2,2v2.4l-1.2,2h-0.8v-4.4l-1.6,4.4h-0.8v-6.4L1299.4,940z M1297.8,956.8
		l0.4-0.4l1.6,2.4l-1.6,1.2l-0.4-0.8V956.8z M1300.2,963.2l1.2,5.2h1.6l-1.6,2l-3.2-7.2H1300.2z M1301.4,934l-2,3.2v-1.6L1301.4,934
		z M1304.6,923.6l1.6-0.8l-2.8,8.8l-2.4-0.8L1304.6,923.6z M1303.8,936.8v1.2l-2.4,2v-3.2H1303.8z M1302.2,974l1.6,0.8v0.8h-1.6V974
		z M1303.8,960l0.8-3.2h-1.2v2.4L1303.8,960z M1305.8,978.4v0.8h-1.2v-0.8H1305.8z M1311.4,911.2l1.6-0.8l-5.2,9.6l-1.6,0.8v-1.2
		L1311.4,911.2z M1340.2,1010.8h1.6l-4.8-7.6l-7.2-6.4V992l-9.2-15.2h-0.8v1.6l-1.2-1.6l0.8-2.8l-1.2-6.4l1.2-2.4l-2.8-8.4v-3.2
		l0.8-2l-0.8-0.8l-0.8-4h-1.2v-2l2.8-4.4V938l1.2-0.8l-2-2.4l5.2-6.8l1.2-7.2l3.2-2.8l11.2-16.8l18.8-23.6l4.8-4.4l1.6-2.8l-4.4,2.8
		l-14.8,15.6l-2,4l-4.4,4l-6.8,8l-5.6,8.8l-3.6,3.6l-1.6,6l-2,1.2v2.8l-4,4.4l-2.4,4.8v3.6l-2,1.6v1.2l2-1.2l-2,2.4v4l2,1.6l-2,4.4
		l-2-5.2V960l4.4,12.4l2.8,2.8l2.8,6.4l-0.8,1.6l-4.4-5.6v2.8l4.8,5.6l0.8-0.4l-0.8-2.4l4,2.4v3.2h3.6l0.4,0.8l-1.2,2l1.2,2.4h-1.6
		l-1.2-2.8l-3.2-2.4l-1.2-1.6l-0.8,1.2l10.8,13.2l2.4-2.8l1.6,0.8l-1.2,1.6l2.4,2l-0.8,0.8l2.8,3.6l4,0.8L1340.2,1010.8z M1309,984
		v1.6l-1.2-0.8L1309,984z M1311.4,967.6l1.2,1.2l-1.2,1.2l-0.8-2L1311.4,967.6z M1311.4,958.8l1.6,3.2h-1.2l-0.8-2.8L1311.4,958.8z
		 M1311.8,989.6v0.8l-0.8-1.6L1311.8,989.6z M1314.2,958.8l0.4-2.8l1.6,2.4l-2,1.6l2.4,1.2l-2,1.2l-1.6-3.2L1314.2,958.8z
		 M1313.4,965.2l1.6-2.8l2.4,2.8l-0.8,1.2l2,6h-2l-0.4-2.4L1313.4,965.2z M1315.8,949.6h-1.2V948L1315.8,949.6z M1314.6,965.2h1.2
		l-1.2-0.8V965.2z M1319.4,906.8l8-10.8l4-0.4l-4.4,6.4l1.2-4.4h-0.8l-5.6,6.4l-3.2,6.4l-1.2-2.4L1319.4,906.8z M1321.8,900.4
		l-4.4,1.6l4.4-3.2V900.4z M1324.2,987.2l-0.4,0.8l-0.8-2L1324.2,987.2z M1323.8,894.4v-1.6h4l-3.6,2.4v-0.8H1323.8z M1328.2,993.6
		h-0.8V992L1328.2,993.6z M1328.2,997.2l1.2,0.8l-2-0.8H1328.2z M1343,1116.8l5.2-5.2l-1.2,3.6l-8.4,3.6l-1.2,1.6h-3.6L1343,1116.8z
		 M1350.6,986.8l2.8-1.2l-2.8-2.4l-5.6-8.4l-0.4-3.2l-7.2-18.4v-3.6h-1.6l1.6,11.2l4,8.4l0.4,8l5.6,6.4L1350.6,986.8z M1341.4,879.2
		h-1.2V878L1341.4,879.2z M1344.6,1014l-2.8-1.6v1.6H1344.6z M1343,872l1.6-1.6h-1.2L1343,872z M1344.6,952.4h-1.6v-2.8
		L1344.6,952.4z M1346.6,1017.6v-2l-2,0.4L1346.6,1017.6z M1345.4,958.8l1.2,0.4h-1.6L1345.4,958.8z M1348.2,963.2v2l-1.2-2H1348.2z
		 M1373.8,1071.6l2.4-3.6l-2.4-3.2l1.6-2v-6.8l-11.6-20.8l-4-3.6l-8.8-11.2l-0.4,2l6.4,6.8l4.8,8.8l4.4,6.4l1.6,0.8l1.6,6.4l2,1.6
		v1.6l2,0.8l0.4,4.4h-2.4v5.6L1373.8,1071.6z M1350.6,1029.6h0.8l6.8,10l2.4,2.4l-0.8,0.4l-2.4-2.8L1350.6,1029.6z M1350.6,1123.6
		l2.4-1.2h-2L1350.6,1123.6z M1353,988.4l0.4-0.4l-1.2-1.2l-1.2,1.2L1353,988.4z M1357.8,857.6l-3.6,4.4l-0.8-1.2L1357.8,857.6z
		 M1353.4,989.6l0.8-0.8h-0.8V989.6z M1361,855.2h-0.4l0.4-0.4V855.2z M1367.4,893.2l-1.2,2l-5.2,2.8l2.8-2.8L1367.4,893.2z
		 M1361,1046h2.4l1.2,7.2l-2-4.4L1361,1046z M1362.6,1112l4.8-1.6l11.2-7.2l4.8-5.6v-4.4h-3.2l-2.8,2.4h2.8l-1.6,2l-7.2,2.4l5.6-8
		v-2l1.6-0.8l4.8-13.2l-2-0.8l-2.8,3.2v2l-4.8,10.4l0.8,2.4l-5.2,7.2l-2,5.6l-2.8-2.4h-1.2l-2,3.6l3.2-1.6l0.8,2l-4,2.4L1362.6,1112
		z M1364.2,845.6v0.4l-0.4-0.4H1364.2z M1384.2,843.6h-2.8l-4.8,2.4l-2.8,2.8h-2.4l-3.6,1.6l-1.6,2.4h-2l1.2-0.4v-1.6l11.6-7.2
		l-2.4,0.4l2-1.2h3.6l1.2-0.8h6l2.4,2h0.8v1.6h-2.8l-0.4-2H1384.2l2.8,2.4l-4.8,0.8l1.2-0.8L1384.2,843.6z M1364.2,869.2l16.4-12.8
		v-0.8l-7.2,4.4l-9.2,7.2V869.2z M1365.4,1100.8l2.4-1.6l-1.6-0.8L1365.4,1100.8z M1366.2,1115.2h1.6v-1.2h-1.6V1115.2z M1371,888.4
		l-2.4,2.4h-0.8V890L1371,888.4z M1377,882.8l-3.6,4V886L1377,882.8z M1377,848.8l-1.6,0.8v-0.8H1377z M1376.6,850.4l-1.2,1.2v-1.2
		H1376.6z M1377,1005.2l-0.4,0.8v-0.8H1377z M1378.6,1007.6l1.6,1.2l-1.6,0.4V1007.6z M1384.6,1012.4l2.8,4.8l-6-4.8H1384.6z
		 M1382.2,865.2h2.4l8.4-3.2v-1.2h-2.8l-6.4,1.6L1382.2,865.2z M1382.2,1005.2h2.4l-0.8,2.8l-1.6-1.6V1005.2z M1389.8,1022.4
		l0.8-1.6l3.6,3.6l-1.2,0.4l-0.8-0.8L1389.8,1022.4z M1391.4,1027.6h-0.8v-1.2L1391.4,1027.6z M1391.8,1028l3.2,2v3.2l-2-2.4
		L1391.8,1028z M1396.2,1033.2l1.2,2l-1.2-0.8V1033.2z M1399,834.4l2.4,1.6l-1.2,0.8l-1.2-1.2V834.4z M1402.2,1037.6v0.4l-0.8-0.4
		H1402.2z M1409,1106v1.2h-1.6l0.4-1.2H1409z M1410.6,1043.6h1.2l-0.8,1.6l-0.4-0.8V1043.6z M1413.8,1078.4l3.2-5.2l-1.6-1.6h2.8
		v6.8l-0.8,0.4v-0.8L1413.8,1078.4z M1416.6,1052v0.8h-1.6v-0.8H1416.6z M1418.2,1058v1.2h-0.8v-2L1418.2,1058z"/>
	<path id="XMLID_384_" d="M1473.8,1130l-1.2-3.2h-1.2l-2,0.8l-4.4-0.4l1.6-3.6l0.8-21.2l1.2-3.6l-0.8-2l0.4-3.2l-0.4-4.4l1.2-0.8
		l-0.8-8.4l0.8-9.2V1056l-0.8-5.2l-0.4-7.6l0.4-2.8l-0.4-6.8l1.6-3.2l-1.2-2l-0.8-6l1.2-6.8l-2-21.2l1.2-3.2V988l-2-3.6l0.8-6
		l-0.8-8.4l0.8-5.6l-0.8-6.4l0.8-2l-0.8-15.6l1.6-26.4l-0.4-7.2l0.4-4l-0.8-6.8l1.6-4.8v-2h-2l-6,6.4h-0.8l2.8-4.8l5.2-3.6l0.8-2.4
		l-16,5.6l-2-0.4l-3.2,2.4l-0.8-0.8l-5.2-0.8l-4.8-2.8h-1.2l-0.8-1.2l-2-0.8l-2.8,3.2h-1.2l0.8-3.6l-3.2-2.8l-1.6,0.8l-4-0.4l0.8-2
		v-2.4l3.2-2.4l1.2-3.6l11.6-9.2l7.2-0.8l7.6-2l13.2-1.2l9.2,0.4l8.4-1.6l14.4-0.8l20.8,0.8l4-0.8l3.2,2l10-0.4l20.8,4.8l9.2,7.6v-2
		h2.4l-0.4,8.4l-2.8,1.6l-1.2,3.2l1.6,0.8l-30.8-2l-10,0.4l-14,2v4.4l1.6,1.2l-2,3.6l0.8,7.2l-2.4,31.6l-4,2.8l3.2,126.8l-0.4,4.4
		l-1.2,59.6l0.4,4.8l-1.2-0.4l-0.4-3.2l-6-0.8l-0.8,3.6l-2.8-0.8l-2,6l-2.8-1.6l-2,0.8h-1.6l-2-1.6l-1.2,1.2l-0.8-3.2l-4.4-3.2
		l-0.4,6.4l-2-4.8L1473.8,1130z M1434.6,890l-0.8-0.4l0.8-0.4V890z M1505.4,1132.4l-0.4,2.4l-0.4-3.6L1505.4,1132.4z M1545.4,887.2
		l0.4,0.4l-0.4,1.6l-0.4-0.8L1545.4,887.2z"/>
</g>
<g id="XMLID_1_">
	<rect id="XMLID_72_" x="1306.9" y="505.5" class="st1" width="171.6" height="238.4"/>
	<path id="XMLID_67_" d="M1324.3,709.2l-5.4-3.9l-0.6-1.8l-1.5-1.5l-0.9-2.4v-4.5l2.7-6.3l2.4-2.4h7.2l3.9,1.2l4.8,3l2.1,4.5
		l0.9,3.9l-1.8,3.6l-0.3,0.9l-0.9,2.4l-2.4,2.4l-1.5,0.3l-1.5,0.9h-1.8l-0.3,0.6h-3.3l-0.9-0.9H1324.3z"/>
</g>
<g id="XMLID_6_">
	<rect id="XMLID_70_" x="1306.9" y="592.4" class="st1" width="171.6" height="238.4"/>
	<path id="XMLID_68_" d="M1324.3,796.1l-5.4-3.9l-0.6-1.8l-1.5-1.5l-0.9-2.4V782l2.7-6.3l2.4-2.4h7.2l3.9,1.2l4.8,3l2.1,4.5l0.9,3.9
		l-1.8,3.6l-0.3,0.9l-0.9,2.4l-2.4,2.4l-1.5,0.3l-1.5,0.9h-1.8l-0.3,0.6h-3.3l-0.9-0.9H1324.3z"/>
</g>
<g id="XMLID_5_">
</g>
<g id="XMLID_51_">
</g>
<g id="XMLID_544_">
</g>
<g id="XMLID_545_">
</g>
<g id="XMLID_546_">
</g>
<g id="XMLID_547_">
</g>
</svg>
