<?xml version="1.0" encoding="utf-8"?>
<!-- Generator: Adobe Illustrator 19.0.0, SVG Export Plug-In . SVG Version: 6.00 Build 0)  -->
<svg version="1.1" id="Warstwa_1" xmlns="http://www.w3.org/2000/svg" xmlns:xlink="http://www.w3.org/1999/xlink" x="0px" y="0px"
	 viewBox="0 0 2000 2000" style="enable-background:new 0 0 2000 2000;" xml:space="preserve">
<g id="XMLID_4_">
	<g id="XMLID_143_">
		<g id="XMLID_147_">
			<g id="XMLID_148_">
				<g id="XMLID_149_">
					<path id="XMLID_236_" d="M87.6,589.7c-0.6-4.7-21.5,31.6-25.8,37.8C70.8,622.2,93.2,580.4,87.6,589.7z"/>
					<polygon id="XMLID_235_" points="178.4,533.7 168.7,547.9 196.6,515.8 					"/>
					<path id="XMLID_234_" d="M216.3,557.9c33.7-63.1-19.9,1.3-13.5-24.5l7.4-14.6l-33.1,47.1C190.2,563.2,220.9,537.4,216.3,557.9z
						"/>
					<path id="XMLID_233_" d="M155.8,702c13.3-24.4,16.9-17.7-0.2-10.3c-1.1,2.9-1.9,4.4-2.8,6.5C153.8,698.3,154.9,699.1,155.8,702
						z"/>
					<path id="XMLID_232_" d="M152.8,698.2C147.8,697.4,143.2,719.7,152.8,698.2L152.8,698.2z"/>
					<path id="XMLID_231_" d="M179.6,696l-18.2,17.9c-7.5,14.6-4.8,20.7-12.8,29.7C161,735.3,168.5,720.8,179.6,696z"/>
					<path id="XMLID_230_" d="M211.9,654.7l-8.2,7.3C200.5,668.1,200,670.6,211.9,654.7z"/>
					<path id="XMLID_229_" d="M186.3,677.2l17.4-15.3c5.3-10.3,17.4-30-6.8,5.2C208.4,649.4,196.6,666,186.3,677.2z"/>
					<path id="XMLID_228_" d="M188.7,666c5.2-15,6.5-25.7,24.7-43.5C198.2,624.6,173.4,668.3,188.7,666z"/>
					<path id="XMLID_227_" d="M256.9,496.2l6.9-20.3l-16,18.3C255.8,485.1,245.4,515.4,256.9,496.2z"/>
					<path id="XMLID_226_" d="M192.7,747.5c8.3-12.7,19.6-35.5,29.4-52.2l-13,12.4C205.6,717.8,204.3,728.2,192.7,747.5z"/>
					<path id="XMLID_225_" d="M222.1,695.3l19.5-18.6C238.1,670.9,230.6,680.8,222.1,695.3z"/>
					<polygon id="XMLID_224_" points="254.5,587.8 216.1,628.5 256.7,588.3 					"/>
					<polygon id="XMLID_223_" points="213.6,762.7 191.7,790.6 225.6,749.1 					"/>
					<path id="XMLID_222_" d="M231.3,766.5c-17.8,23.2-22.9,43.8-34.9,57.4c6.6-2,23.2-21.1,38.2-38.2
						C224.7,794.4,223.1,789.5,231.3,766.5z"/>
					<path id="XMLID_221_" d="M257.1,761.2c-5.3,4.9-13.6,14.5-22.5,24.6C239.9,781.1,246.7,774,257.1,761.2z"/>
					<path id="XMLID_220_" d="M247.5,689.2c-4.4,8.1-16.2,29-18.4,39.6l20.3-37.7C248.9,690.5,248.2,689.9,247.5,689.2z"/>
					<path id="XMLID_219_" d="M250.1,689.9l-0.6,1.2c2,2.3,3.2,4.2,3.6,5.1C252.7,695.5,251.7,693.7,250.1,689.9z"/>
					<path id="XMLID_218_" d="M247,688.7c0.2,0.2,0.3,0.4,0.5,0.5C249.5,685.5,250.1,684.2,247,688.7z"/>
					<path id="XMLID_217_" d="M249.4,630.2c16-18.2,36.6-35.5,48.9-70.8C280.5,582.7,273.5,602.8,249.4,630.2z"/>
					<path id="XMLID_216_" d="M272.4,641.6l-1-12.1c-5.8,9.7-13.4,24.3-21.3,33.4L272.4,641.6z"/>
					<polygon id="XMLID_215_" points="282.6,631.9 272.4,641.6 272.8,646 					"/>
					<path id="XMLID_214_" d="M267.9,720.8c12.5-14.1,16.2-13.6,21-14.1c1-9.3-0.2-15.4-3.7-17.5
						C277.7,700.3,263.4,719.7,267.9,720.8z"/>
					<path id="XMLID_213_" d="M261.3,702.6c0.7-0.7,1.2-1,1.9-1.7C264.7,697.6,265.1,696.4,261.3,702.6z"/>
					<path id="XMLID_212_" d="M320.7,727c1.3-2.4,2.4-4.5,3.7-6.9c-1.4,2.1-2.4,3.6-4.1,6.2L320.7,727z"/>
					<path id="XMLID_211_" d="M288.9,682.1c1.8-8.6-5.4-0.8-13.8,9.5c4.2-2.4,7.8-3.5,10.2-2.4C288.7,684.2,290.9,680.8,288.9,682.1
						z"/>
					<path id="XMLID_210_" d="M276.6,749.8c3.4-8.4,5.9-15.8,8-22.7C278.7,739.4,270.2,758.9,276.6,749.8z"/>
					<path id="XMLID_209_" d="M257.8,711.5c-0.5,0.5-1,1.1-1.4,1.4C252.4,721.2,254.7,717.3,257.8,711.5z"/>
					<path id="XMLID_208_" d="M257.8,711.5c4.6-4.4,11.3-12.7,17.3-19.9c-3.4,1.8-7.3,4.8-11.9,9.4
						C261.9,703.7,259.8,707.8,257.8,711.5z"/>
					<path id="XMLID_207_" d="M477.5,501.6c-21.7,33.1-48.4,59.6-31.7,19.9c-21.9,21.3-87.5,133.9-121.5,198.6
						c9.4-14.5,18-28,36.5-43.9c9.5-19.6,13.7-51.2,38-78.2c19-12.1-0.9,16-8.2,36.2c23.1-43.8,48.8-54.1,86.1-116.4l-20.9,17
						C461.7,525.1,474,511.6,477.5,501.6z"/>
					<path id="XMLID_206_" d="M315.1,709.5l-5.1,2.6c-0.9,7.6-7.3,22.3-20.2,50.8c14.4-13.8,23.1-25.6,30.5-36.6l-9.2-12.3
						L315.1,709.5z"/>
					<path id="XMLID_205_" d="M298.8,705.2c24.9-35.3,40.6-47,61.8-88.8c-8.9-2.1-24.3,27.2-38.6,40.3c17.5-1.7-16.2,18.2-20.7,44.2
						c-6.2,4.7-9.5,5.4-12.4,5.7c-0.7,5.7-2.1,12.5-4.4,20.5c0.4-0.9,0.7-1.6,1.2-2.4l-0.1,0.1c0.1-0.1,0.3-0.5,0.4-0.6
						c2.4-4.9,3.9-7.7,2.8-4.7c0.3-0.4,0.6-0.5,0.7-0.6c3.3-5,6.3-9.3,9.2-13.4c-1.3,9.7-5.4,9.8-9.2,13.4c-1.2,1.8-2.3,3.4-3.5,5.3
						c-0.1,0.2-0.2,0.3-0.2,0.5l24.3-12.6C310.7,705.4,307,704.5,298.8,705.2z"/>
					<path id="XMLID_204_" d="M353.6,484.6c-1.6,3.5-3.3,6.1-4.9,8.7C352.2,489.3,354.4,486.4,353.6,484.6z"/>
					<path id="XMLID_203_" d="M344.8,509.7c-4,4.6-13.9,18.8-14.4,13.2c4.4-12.5,10.9-17.5,18.2-29.7c-7.7,8.6-22.3,22.6-27.9,43.7
						l3.9-4.5c-3,15.6-25.2,65.1-29.1,69.6C314.6,568.3,327.9,544.1,344.8,509.7z"/>
					<path id="XMLID_202_" d="M328.3,598.5l21.1-11.7l14.7-34.8l-11.6,19.2C351.5,560.2,338.1,584.3,328.3,598.5z"/>
					<polygon id="XMLID_201_" points="310.3,745.8 284.7,783.4 324.7,732.7 					"/>
					<polygon id="XMLID_200_" points="325.8,749.2 304.1,782.3 320.2,764.2 					"/>
					<path id="XMLID_199_" d="M1305.9,882.4l10-6.2C1312.4,877.7,1309.1,879.9,1305.9,882.4z"/>
					<path id="XMLID_198_" d="M1288.7,863.9l-13.3,14.3C1283.4,870.8,1288.9,865.2,1288.7,863.9z"/>
					<path id="XMLID_197_" d="M623.3,947.7c-18.5,32.4-49,81.2-22.6,45.4l25-35.4C618.5,961.8,619.4,956.5,623.3,947.7z"/>
					<path id="XMLID_196_" d="M981.2,903.1c2.4-3.6,4.9-7.3,7.4-11c-10.6,10.6-20.5,20.6-29.4,29.5
						C966,915.7,973.4,909.6,981.2,903.1z"/>
					<path id="XMLID_195_" d="M1099.7,768.2l-12.8,25.8C1092,785.5,1096.4,777,1099.7,768.2z"/>
					<path id="XMLID_194_" d="M1438.6,936.5l31.8-31C1465.6,901.7,1453.1,920.3,1438.6,936.5z"/>
					<path id="XMLID_193_" d="M461.1,818.5c-6,16.4-7.2,24.1-6,27.5C464.9,822.6,482.4,789.3,461.1,818.5z"/>
					<path id="XMLID_192_" d="M996.3,1223.3c6.8-4.5,13.3-10.6,19.5-17.9C1009.4,1209.6,1003,1215,996.3,1223.3z"/>
					<path id="XMLID_191_" d="M465,852.6c1.8-4,2.5-6.2,3.9-9.7c-6.6,4.3-12.4,7.5-13.9,3.1C447.8,863.5,444.8,875.2,465,852.6z"/>
					<path id="XMLID_190_" d="M1792,1273.1c-0.9,1.8-1.2,2.7-2.3,4.8C1793.4,1273.3,1793.2,1272.7,1792,1273.1z"/>
					<path id="XMLID_189_" d="M1638.3,1707.9c-2.8,1.3-4.7-0.2-6.8-1.1C1630.6,1709.8,1632.2,1710.7,1638.3,1707.9z"/>
					<path id="XMLID_188_" d="M365.7,797.3C361.5,798,362.6,801.1,365.7,797.3L365.7,797.3z"/>
					<path id="XMLID_187_" d="M446,644.9c3.2-3.7,7-8.7,12.5-17C452.6,636.5,448.7,641.8,446,644.9z"/>
					<path id="XMLID_186_" d="M643.7,647.7c0.1,0.1,0.1,0.2,0.1,0.3C647.9,640.4,647.1,641.8,643.7,647.7z"/>
					<path id="XMLID_185_" d="M372.5,778.2c-1.9,5.1-3.2,9.6-3.7,13C370.1,788,371.3,783.8,372.5,778.2z"/>
					<path id="XMLID_184_" d="M361.8,795.8c0.2-2.2,0-3.6,0-5C357.6,796.6,355.4,800.6,361.8,795.8z"/>
					<path id="XMLID_183_" d="M370.6,797.7c-1.9-0.4-2.1-3-1.8-6.5c-1.1,2.8-2.2,5-3.1,6.1C366.8,797.2,368.4,797.2,370.6,797.7z"/>
					<path id="XMLID_182_" d="M1514.6,1199c-0.7,1.2-1.1,2-2.1,3.6C1526.5,1190.8,1523.6,1192.1,1514.6,1199z"/>
					<path id="XMLID_181_" d="M965.2,642.5c-0.4,0.2-1.2,1.1-1.6,1.4c-0.1,0.4-0.4,1-0.5,1.5L965.2,642.5z"/>
					<path id="XMLID_180_" d="M994.9,624.8c-37.7,39-35.8,32-31.8,20.6l-74.4,100.6c0,0,26.5-30.3,53.1-60.7
						C968.3,655.1,994.9,624.8,994.9,624.8z"/>
					<path id="XMLID_173_" d="M1359.3,912.3l19.4-34.8c49.5-42,40.3-20.7,70.5-67.1c-89.9,101.9-33-10.2-122.8,91.5l14.7-25.1
						c0.3,2,5.7-3.9,6-1.8c34.8-55.9-70.3,69-67.8,45.5c3.3-11,13.7-28,26.7-38l-30,18.4c-0.6-4,15.5-21.3,16.1-17.3l-19.3-2.4
						l2.7-2.9c-15.7,14.6-41.3,36-52.4,44.9c9.7-17.4,11-9.5,21.3-23l-28.3,19c20.3-29,48.3-49.9,49.7-42
						c82.6-107.8-28,20.9,10.3-50.7l17.7-7.5c46.4-61.7,23.1-45,47.3-87.6c-14.7,20.5-64.8,104.1-94.3,123.2
						c4.6-9.5,5.1-15.6-16.8,1.6c31.6-36.5,19.9-30.9,13.3-33.1l42.2-48.1c-17.4,9.4-38.3,34.4-60.2,53.5
						c-1.8-9.8,29.4-48.4,55.3-81.2c-2.8-15.9-45.4,65.7-64.5,65.2c8.1-25.3-14.5-10.3-48.9,10.6c8.8-21.5,26.5-28.8,36.4-44.4
						l-38.2,34.5c-0.4-2,10.2-13.5,15.5-19.4c-17,11.5-42,48.2-59.8,55.8c-23.8,26-10.3,3.6,1.5-18.5c11.9-22.2,22.1-44.1-7.9-17.1
						c9.8-15.5,26.4-29,41.9-48.4c-22.6,15.2-31.1,20.5-40.9,27.7c-9.8,7.2-20.8,16.3-48.1,39.4l19.4-38.6
						c-25.3,41.5-69.4,78.7-105.7,109.1c-13,19.4-24.4,36.3-29.5,44.7l-32.1,17.9c5.6-9,20.7-25,39.5-44.1
						c-4.1,3.5-8.1,6.9-11.7,10.2c11.6-21.1,37.2-47.8,62.9-73c-6.9,10.7-14.4,22-21.8,33.2c27.5-27.6,57.6-58.5,81.3-87.6
						c-5.4,5.1-10.8,8.8-14.5,10.4c7.5-7.5,14-14.4,17.8-19.5c4-5.4-6.2,4.5-18.4,15.5l43.6-56.5l-18.8,21.2l15.2-45.5
						C1038.9,777,963,851.2,929.3,861.5c37.1-37.2,55.2-65.2,94.9-112.8c-18.8,27-11.4,24.1,0.7,16.5c12-7.5,28.8-19.7,28.5-11.2
						c0.3-8.7,20.1-30.7,27.7-37.7c0,0-13.1,8.5-26.2,17c-13.1,8.5-26.1,17.1-26.1,17.1c32.6-38.8,21.2-31.8,30.7-51
						c-60.9,79.6-53.1,42.7-78.4,61.7c21-26.3,44.1-51.7,46.1-39.6c20-32.4-1.2-11.7-23.3,10.1c-22,21.8-44.9,44.7-28.5,16.8
						c2.3,0.8-0.1,5.5,11.4-7.1c-22.9,19.8-17.9-6.5,2.9-27.4l2.2,0.9c-2.1-9.3-10.9-16.6-25.9-13.5c-15.1,3.2-36.5,16.9-63.9,49.5
						c6.7-8.7,65.4-79,76.8-91.9c0,0-49.9,51.7-99.4,103.8c-49.6,52-98.7,104.3-98.7,104.3c23.5-28,60.4-77.5,95.8-123.2
						c35.4-45.7,69.3-87.5,87-99.7c1.8-5.2,3.7-10.9,2.4-13.3c-1.3-2.4-5.8-1.6-16.8,6.2c-4.4,9.7-60.4,86.8-67.1,90.1
						c21.5-34.8,27-44.3,31.3-52.9c4.3-8.5,7.5-16,24.3-46.9c-3.3,7.3-23.4,32.9-42.9,56c-19.5,23-38.4,43.4-39.5,40.2
						c11.2-13,68.9-89.7,77.9-97.8c0,0-20.1,20-40.1,40c-20,20.1-40,40.2-40,40.2c15.2-13.9,58.7-75.1,75.4-102.3
						c-12.2,18.4-8.8-9.3-18.7-2.8L898.8,625c-1.4-11.7-28.6,17.3-56.4,47.5c-27.9,30.2-56.4,61.6-60.9,54.6
						c15.4-17.5,89.8-111.4,91.6-127.7c-18.8,21.9-63.7,74.9-108.3,125.9c-44.6,51.1-88.9,100.3-107.4,114.2l17.5-28l-30.4,24.3
						c28.1-33.1,72.8-83.9,117-132.3c44.2-48.5,87.9-94.9,113.3-120.2c10.6-24.6,21.8-32.2,12.5-35.3c15.7-26.8,32-34.5,35.3-34.3
						l-5.9-29.2c-39.1,54.7-53.4,44.6-85.7,90.3c0,0,15-10.6,30-21.3c7.5-5.3,15.1-10.5,20.7-14.5c5.7-3.9,9.4-6.6,9.4-6.6
						c-19.6,27.3-50.6,63.6-77.3,90.9c-26.7,27.4-49,45.7-51.4,36.6c6.4-11.9,24.5-35.7,42.7-58.8c18.2-23.1,36.5-45.4,43-54.6
						c-15.3,17.5-37.6,27.3-29.1,13.2l26.3-25.3c4-12.7-11.9,3.3-25.1,15.2c-13.2,12-23.6,19.9-9-9.1C811,535,853.1,464,829.5,496
						c-39.8,65.9-177,259.5-213.3,304.3c1-2.4,8.2-19.8,17.4-40.8c9.2-21,20.5-45.5,29.8-62.1c15.1-26.2,37.4-54.3,59.3-81.4
						c21.8-27.1,43.3-53.3,56.2-75.8c-10.8,14.9-26.4,31.6-31.7,36.8c6.1-14.9,34-45.6,22.7-43.4c-40.3,55-9.8-13.9-36.2,45
						c-17.4,11.6,1.4-16.1-7.7-18.8c-11.4,18.9-34.5,48.5-56.8,74.9c-22.3,26.4-43.8,49.6-52.4,55.4c10.2-14,21.7-33.5,26.8-42.5
						c-9.1-13.7,1.5-43.9-10.1-52.5c8.2-14.4,13.6-34.9,32.5-57.5c-8.5,8.8-23,26.9-27.6,25.8c25.7-53.7,13.4-2,47.6-64.4
						c-22.6,32.5-40.2,38.8-59.3,55.8c-32.5,51.9,5.6,17.8,24.7,1c-23.6,35-50.1,69.2-74.9,97.8c-24.8,28.6-47.8,51.5-64.7,63.6
						c-21.2,11,26.1-48.2,17.8-39.3c-5-12.3-29.3,15.9-49.9,39.5c-20.6,23.6-37.6,42.7-28.3,12.4c23.6-48.9,58.5-89.6,78.4-122.9
						c19.2-11.7-6.5,36.6,0.1,38.4l7.4-25.6c12.4-13.2,25.3-21,19.6-6.1c10.8-21.8,4.2-28.9-3.8-36.4c-4-3.7-8.3-7.6-11.1-13.4
						c-2.7-5.8-3.9-13.6-1.4-25.3c-12.4,13.4-27,26.2-36.7,45.7l8.6-3.4c-19.5,39-41.2,44.8-46.5,65.5
						c-22.7,21.6-55.3,57.5-50.4,31.5l31.6-52.6c-9.5,15.2-14.2,34.3-1.7,20.1c-9.1,10.3-1.1-9.3,3.2-23.3c4.3-14,5-22.4-18.6,10.1
						l-17,39.6c-22.7,22-65.2,72.1-62.2,51.1c-29.2,53.2,5.5-4.7-27.5,58.3c43-77.2,16.9,15.2,59.6-67.4
						c-19.5,36.3-21.9,45.1-23.3,52.8c-1.4,7.7-1.7,14.2-17.3,45.9c10.8-17.1,18.5-34.1,19.3-21.7c3.5-4.8,8.2-10.7,11-14.1
						c-0.1,0.6-0.2,0.9-0.4,1.5c0.3-0.7,0.7-1.5,1-2.2c1.9-2.4,2.3-2.9,0.3-0.8c3.3-8.4,7.9-18.1,13.6-27.9
						c28.3-37,37.4-29.3,53.9-47.3c-1.5,10.5-14.2,18.4-24,37.8l24.6-26.9c-24,38-31.1,68.8-54.1,85.2l6.6,6.7
						c-9.3,24-8.7,36.5,5.5,23.2c-1.8,10.5,36.5-35.5,14-8.2l27.4-15.2l-6.1,9.4c4.3,6.3,20.7-5.1,32.1-8.5
						c11.4-3.4,17.9,1.2,1.7,39.3c10.3-6.7,22.2-15.4,21.5-0.4l-20.7,32.9c6.3-3.9,4.6,6.7,4.4,14.2c-0.3,7.6,1,12.1,13.6-3.8
						c-27.1,44.8-24.5,53.6-15.3,53.9c4.6,0.1,10.9-1.9,15.9-2.6c4.9-0.7,8.6-0.1,8.1,5.2l29.6-41.2c4.3,6.6,18.2-1.2,37.5-12.5
						l25.6-36.8c14-12.7,13.5-3.2,11,9.9c-2.5,13.1-6.9,29.6-0.5,31.4c-10.8,13.3-10.7,7.9-6.4-1.8c-11.9,22.6-13.6,31.4-9.9,32.8
						c3.7,1.4,12.7-4.5,22.2-11c19-13.1,40.2-28.8,23.5,4.7c12.4-11.1,11.1-5.2,6.2,5.2c-0.3-0.1-1,0.4-2.1,1.4
						c-0.1,0.6,0.3,1,0.8,1.2c-3.5,7-7.6,15.1-10.7,21.8c5.4-9.5,9.8-17.5,11.3-21.5c2.6,0.8,9.1-1.3,18.9-7.9l-27.8,39.4
						c0.6-0.3,0.8-0.1,1.5-0.6c-7.8,16.4,16.2-16.3,36.5-46.4c6.3-5.1,13.5-11.6,21.6-20c-22.3,31.9-16.3,28.2-10.6,25.1
						c5.7-3.1,11.2-5.5-12.4,28.6c13.3-15.2,21.8-18.4,33.7-25.9c11.8-7.5,27.1-19.4,54-52.3c-6.7,8.8-9,13.7-11.1,12.9
						c-2.5,10.4-5,20.7,12.9,4.2l-36.3,49.4c0,0,14.6-14.7,29.1-29.5c14.6-14.7,29.2-29.4,29.2-29.4c-18.4,33-30.1,51.4-63.7,84.9
						c27.8-24.2,34.3-27.7,40.5-31.4c6.2-3.7,12.1-7.5,39.2-31.9L764.7,926c4.2,1.4,42.7-35.7,24.3-8.6c-19.8,32.4-12.3,41.7-3,51.8
						c4.7,5,9.8,10.3,12.2,18.6c2.4,8.3,2,19.7-4.5,37c35.3-46.4,29.2-34.6,21.5-19.7c-7.7,14.9-16.9,32.7,12.3-1.8
						c-16.5,22.1-23.8,36.3-42.2,52.2c13.4-6.5,10,4.9,10.1,11.3c0.1,6.4,3.8,7.7,31.6-18.8c-16.7,22.1-28,29.3-37.5,42.7
						c4.6-3.9,18.4-15.9,8.8-2.4c-9.6,13.4-16.3,16.6-25.5,24.5c12.6,4.5,68.3-59.6,120.3-120.1c-19.3,33.1-13.4,31.1,24-5.8
						c-15.1,21.4-29.8,44.7-42,46.7c0.5,2.9-0.4,14.6,3.7,19.6c4.1,5,13.4,3.1,34.3-21c-9.4,13.3,1.7,7.7,7.4,2.9
						c5.3,9.5,2.2,14.4,13.7,16.3l4.7-9.7c53.1-56,17.5-7.6,29.7-9.4l-5.3,5.9c-22.2,54.3,23.5-15-4.1,45l30.5-37
						c34.3-38.5,27.5-24.3,16.3-3.4c-11.2,20.9-26.8,48.6-9.9,37.2l15-23.2c27.5-22.9-79.5,116.7-83.6,130.3
						c-4.9,7.6-10.9,9.6-16.6,13.4c-28.3,56,42.6-46.2,60.8-49.8c-20.6,27-58.5,63.4-56.9,73.1c-7.6,11.6,14.6-5.6,34.4-18.6
						c19.8-13,37.1-21.9,19.8,6c15.4-21.2,30.8-42.4,47.6-53.8c12.3-1.7-48.2,88.9,11.4,31.7c-3.9,6.1-8.1,11.5-12.3,16.4
						c18.6-11.9,38.5-13.3,70.6-44.5c-52.2,64.4-31.6,55.6-10.5,45.1c21.1-10.5,42.6-22.8-7.5,34.9l20,6.5l-10.6,11.4
						c2.8,15.8,30-9.1,57.3-34c-4.6,9.7-15.5,19.2-20.9,25.1c-6.4,35.2-0.7,31.5,60.4-16.3l-31.1,38.6c10.9-9.6,3.3,9.4-0.7,26.8
						c-4,17.4-4.2,33.2,21.3,17c-3.8,4.2-10.3,11.2-15.9,15.6c26.5-15.6,13.4,18.3,9.1,39.7c-4.4,21.3,0,30,61.1-36.6l38.8-25.5
						c-4-21.7,52.4-58.3,66.4-85.7c11.9-3.8-21.9,52.7-34.1,54.5l4.8-7.7c-62.9,70-5.3,39.1-46.8,87.9c14.4,9,19.5,28.8,23.9,49.3
						c4.4,20.4,7.8,41.6,18.8,53.2l43.7-58.7l5.8,10.2c-8.6,15-33.4,46.7-37.5,39.3c-23.2,34.6,32.3-18.4,42.5-30.6
						c-6.9,32.7-58.8,62.1-56.3,66.4l8.4-0.1l4.3-7.5c23-19.8,43.4-44,48.5-35.2c-4.6,15.1-26.2,36.8-26.2,40.5
						c-3.3,4-4.2,6.4,1.5,3.9l6.8,13.7l32.2-48.3c22.8-18.2,8.2,10.6,44.6-44.1c-28.3,42-24,57.3-14.5,65.4
						c9.5,8.1,24.1,9.2,16.5,23.2c33.1-27.3,39.3-21.5,44.3-10.9c5.5-11,45-62.6,47-50.7c-86.5,102.4-23.5,55.7-78,135.6
						c34.8-54,30.1,3.8,78.6-73.6c-0.9,13.2-30.9,39.5-46.1,67.8c23.2-14.6,25.7-1.9,26.1,14.6c0.3,16.5-1.6,36.7,12.7,36.8
						c11.1-13.6,24.9-37,44.8-54.6l-45.1,76.4c8.8-4.1,65.9-77.3,34.5-24.3c8.2-12.3,20.7-30.9,26.5-33.5c-4.7,23.6,0.2,35.4,9,42.2
						c8.8,6.8,21.6,8.6,32.9,12.2c11.4,3.6,21.2,9.1,24.4,23.4c3.2,14.2-0.4,37.3-16.1,76c15.9-30.7,21.2-31,25.6-29.2
						c2.6-8.3,26.5-34.5,40.5-53.7l-25.4,63.9c42.8-50.6,18.6,8.5,58.4-40.6l-11.5,5.5c25.7-27.3,48.6-62,72.5-99.3
						c23.9-37.2,48.8-77.1,78.3-114.8c-29.1,31.2-14.6,2.7-3.3-22.4c11.3-25.2,19.3-47.1-23.2-3.1c9.4-17.4,20.9-22.9,33.1-41.5
						c-27.8,30.4-36.4,34.6-31.5,15.2l6.9-7.5c-23.8-5.6-6.6-43.6-9.7-80.1l-27.6,38.5c-0.3-8.3,7.9-20.7,13.2-31.6
						c-49,52.9,9.4,12.5-43.6,71.5c26.7-40.3,19.5-46.4,13.5-53.6c-6-7.2-10.8-15.6,21.1-60.2c-6.1-5.5-31.9,44.7-38,39.1l16.6-24.7
						l-25.2,28.8c-0.4-8.3,20.4-39.1,35.7-59c-0.8,3.2,7.3-3.2,9.7-4.1c16.1-31.8-22.8-2.8-17.7-13.2l-5.1,19.2
						c-17.4,4-25.4-6-35.9-12.7c-5.2-3.3-11.1-5.9-19.1-5.5c-7.9,0.4-18,3.7-31.6,12.1l-12.7,18.5c-38.8,21.9,4.9-27.5-21.3-24
						l3.9-3.7c-16.8,15.1-27.6,20.8-29.9,15.7c20-17.5,25.1-45.1,48-63.9c-41.8,23.3-28.8,21.6-90.2,78.8l21.1-30.6
						c-24.2,23.5-35.6,37.1-48.8,38.7c25.9-20,31-47.6,64-75c18.1-37.5-0.3-26.1-14.7-17.5c-14.5,8.6-25,14.3,9.1-34.4
						c-71.7,74-23.1,54.7-40.8,68.6c-17.9,28.6-54.1,54.9-52.3,43.1c-3.3-5.7,74.9-108.4,61.8-116.5c0.9,1.3,5.9-4.6,6.8-3.3
						c12.1-23.9-31.2,20.3-9.6-17.1c-42.4,45.4-4.8-8.6-56,51.8l22.5-5.2c-19.3,10.9-84,77.6-65.7,34.5c11-11.7,27.4-25.4,36.9-32.7
						c11.9-20.5-15.6,7.2-3.4-13.8c51.3-60.4,24.2-2.4,69.2-43.6c18.1-28.4-48.9,34,8.9-29.5c-37,40.2-37.8,35.1-36.9,27.2
						c0.9-7.9,3.5-18.6-27,10.2l30.8-36.1c-6,4.7-22.9,19.8-24.5,16.9l43.4-43.9c-39.9,35.1,16.9-45.6-7.5-28.7
						c13.9,9.6-33.6,46.4-50.3,77.6c-56.7,35.5,70.1-103.1,37.8-100.4c6.7-3.1-9.2,29.4-27.1,43.2c2.9-10.3,10.1-28.1,23.9-48.9
						c-18.1-2.3-29.5,39-53.2,57.1c33.1-47.7-20.9,13.2-38,23l31-37c6.4-35-68.2,74-56.3,35.1l48.2-46.9l-17.4,7.9l36.6-40.9
						c-33.1,25.4-28.4,15.5-25.2-1.9c-20.4,27.3-57.4,66.2-64.3,62.2c14.5-25.3,31.9-33.1,19-35c21.4-21.4,48-48.6,22.9-11.5
						c10.5-11.7,21.4-21.5,31.8-33.1c16.9-28.8-6-15-9.4-17.2c0,2.4-0.3,5.5-4,11.4l-55.5,40.6c9.8-15.4,20.8-25.2,31.5-34.8
						c-5.8,1.9-21.9,17.3-28.2,17.4c26.4-29.1,52.4-60.1,69.4-69.8l-39.8,23.3c10.3-13.6,24.5-40.7,35.4-50.4
						c4.3-11.5-11.9-0.4-27.9,9.8c-15.9,10.2-31.6,19.4-25.9,4.3c-5.4,5.4-11,10.2-16.5,12.9c-2.2-13.6,22.2-56.1-22.4-23.5
						l40.6-57.9c-17.9,5.6-50.6,73.3-80.4,82.7c-23.4,9.3,36-48.2,45.7-65.7c-27.5,23-82.4,71-53,20.7
						C1358.1,904.4,1353.4,914,1359.3,912.3z M1246.3,855.3c8.4-6.1,32.5-26.5,15.2-3.9C1223.2,891.3,1238.9,870,1246.3,855.3z
						 M1026.9,820.4c11.6-11.1,8.7-3.2-0.7,12.8C1022,834.7,1021.2,831.7,1026.9,820.4z M415.8,783.2c0.5-0.6,0.9-1,1.5-1.8
						C411.2,799.9,413.8,792.7,415.8,783.2z M418.5,759.8c-4.6,5-8.2,10.7-11.5,16.6c7.3-9.8,9.8-9.2,10.1-4.8
						C423.4,760.6,427,752.6,418.5,759.8z M1335.5,1472.1l6.3-11.1C1354.4,1453.3,1345.4,1462.2,1335.5,1472.1z"/>
					<path id="XMLID_172_" d="M1085.9,783.8c-4.7,6.7-10.4,13.7-16.1,20.7C1075.8,798.9,1081.8,791.7,1085.9,783.8z"/>
					<path id="XMLID_171_" d="M1432.8,942.2c-0.2,0.4,0,0.3-0.1,0.6c2-2.1,4-4.2,5.9-6.4L1432.8,942.2z"/>
					<path id="XMLID_170_" d="M789.5,517.3c-2.1,7.1-6.1,15-10.6,23C785.8,530.7,790.7,522,789.5,517.3z"/>
					<path id="XMLID_169_" d="M326.7,798.1l12.5-6.9c-4.1,0.2,0.7-9.3,3.4-16.6C336.6,784.1,328.9,798.6,326.7,798.1z"/>
					<path id="XMLID_168_" d="M436.2,513.9c-4,4.4-2.2-0.6-6.3,3.9l-11.7,19.1C422.7,538,435,524.4,436.2,513.9z"/>
					<path id="XMLID_167_" d="M407.9,659.7c21.4-34.5,10.3-25.2,2.2-21.5c0.3,0,0.7-0.1,0.7,0.5C379,685.7,393.5,672.7,407.9,659.7z
						"/>
					<path id="XMLID_166_" d="M408.4,638.7c-2.3,0.8-4.2,0.9-4.3-1.6C391.3,656.1,403,642.2,408.4,638.7z"/>
					<path id="XMLID_165_" d="M392.4,775c3.8-10-29.5,42.7-21.5,28.2c-15.1,21-3.5,9.9,8.8-4.4C392.1,784.5,405.1,767,392.4,775z"/>
					<polygon id="XMLID_164_" points="476.7,545 451.1,588.1 475.2,555.6 					"/>
					<path id="XMLID_163_" d="M489.5,597l0.9-15.9c-4.5,7.1-8,10.7-11,13.2C482.6,598.3,481.6,609.6,489.5,597z"/>
					<path id="XMLID_162_" d="M479.4,594.3c-1.6-2.2-4.2-2.6-9.8,3.5C471,598.1,474.4,598.3,479.4,594.3z"/>
					<polygon id="XMLID_161_" points="493.9,538.2 490.2,548.2 492.9,554.3 					"/>
					<path id="XMLID_160_" d="M554.7,651.5l15.1-7.2c10.3-13.8,14.2-23.8,7.7-19.9C569.2,633.2,562.8,636.9,554.7,651.5z"/>
					<path id="XMLID_159_" d="M608.9,522.7c-3.8,10-9.8,19.4-17.8,33.9l34.5-51.6L608.9,522.7z"/>
					<path id="XMLID_158_" d="M638.2,524.8c10.3-13.9,38.2-33.9,26.7-37C654.7,501.6,639.4,508.5,638.2,524.8z"/>
					<polygon id="XMLID_157_" points="702.3,664.3 700.1,663.6 641.4,746.9 					"/>
					<path id="XMLID_156_" d="M942.5,538.2c5.9-26.1-39.9,48.5-29.5,18.3c-16.5,17.7-8.5,24.7-23.1,39.7
						C910.4,579.9,904.5,593.4,942.5,538.2z"/>
					<path id="XMLID_155_" d="M889.9,596.2c-3.2,2.6-7.1,5.8-12,10.4C883.2,602.6,886.9,599.3,889.9,596.2z"/>
					<polygon id="XMLID_154_" points="1624.7,1766.2 1617.2,1787.2 1634.5,1757.3 					"/>
					<path id="XMLID_153_" d="M1680.7,1713.9l-38,52.6l38.7-44.4C1678.4,1723.5,1672.7,1726.2,1680.7,1713.9z"/>
					<path id="XMLID_152_" d="M1318,744.4l-10.6,11.5c-10.3,13.4-9.9,15.4-9.3,19.5L1318,744.4z"/>
					<polygon id="XMLID_151_" points="1353.8,839.9 1353.5,837.9 1317.2,884.1 					"/>
					<path id="XMLID_150_" d="M1458.8,831.8c-0.7-3.8-11.9,3.8-12.5-0.1C1458.1,828,1411.5,887.7,1458.8,831.8z"/>
				</g>
			</g>
		</g>
	</g>
</g>
<g id="XMLID_1_">
</g>
<g id="XMLID_2_">
</g>
<g id="XMLID_3_">
</g>
<g id="XMLID_5_">
</g>
<g id="XMLID_6_">
</g>
<g id="XMLID_7_">
</g>
</svg>
